<svg width="35" height="34" viewBox="0 0 35 34" fill="none" xmlns="http://www.w3.org/2000/svg">
<path d="M22.9495 3.05176e-05C25.8412 3.05176e-05 28.1846 2.34397 28.1846 5.23518C28.1846 8.1263 25.8412 10.47 22.9495 10.47C20.0587 10.47 17.7147 8.1263 17.7147 5.23518C17.7146 2.34397 20.0587 3.05176e-05 22.9495 3.05176e-05Z" fill="#FE385C"/>
<path d="M11.6199 19.7182C12.0565 19.7182 12.444 19.5213 12.71 19.2161L21.5217 11.1021C19.7727 10.6778 18.3206 9.49086 17.5383 7.91425L10.5771 17.1806C10.3205 17.5389 10.1685 17.8513 10.1685 18.2661C10.1685 19.0676 10.819 19.7182 11.6199 19.7182Z" fill="#FE385C"/>
<path d="M7.38459 27.5175C10.3128 29.7676 14.8143 25.5056 14.9824 25.3429C15.0308 25.3007 19.7787 21.1205 21.9921 23.5964C22.4542 24.1114 22.6473 24.7077 22.586 25.419C22.3532 28.056 18.6911 31.4738 17.299 32.5679C16.9515 32.8415 16.8912 33.3456 17.1645 33.6935C17.2393 33.7892 17.335 33.8665 17.4442 33.9196C17.5534 33.9727 17.6733 34.0002 17.7948 33.9999C17.9669 33.9999 18.1425 33.9433 18.2872 33.8295C18.5149 33.6509 23.8406 29.4313 24.1813 25.561C24.2839 24.3998 23.9491 23.3795 23.187 22.5276C22.2112 21.4363 20.3665 20.4617 17.1306 22.0151C15.3591 22.8639 13.9737 24.0957 13.8944 24.1662C12.9424 25.0774 9.88188 27.4144 8.36006 26.2457C8.02878 25.9913 7.85861 25.6836 7.82287 25.2776C7.70304 23.8758 9.18496 21.8576 9.92215 21.013L11.5641 20.4405C11.5641 20.4405 11.2353 20.4038 10.461 19.7098C9.73706 19.0592 9.54498 18.3558 9.54498 18.3558L8.80602 19.8571C8.27974 20.4438 6.0315 23.1001 6.22711 25.4125C6.29883 26.2636 6.6989 26.9918 7.38459 27.5175Z" fill="#FE385C"/>
</svg>
