<svg width="20" height="24" viewBox="0 0 20 24" fill="none" xmlns="http://www.w3.org/2000/svg">
<path d="M1.50209 8.00391C0.673862 8.00391 0.00244141 8.67533 0.00244141 9.50355V16.5019C0.00244141 17.3301 0.673862 18.0015 1.50209 18.0015C2.33032 18.0015 3.00174 17.3301 3.00174 16.5019V9.50355C3.00174 8.67533 2.33032 8.00391 1.50209 8.00391Z" fill="#4CAF50"/>
<path d="M18.4982 8.00391C17.67 8.00391 16.9985 8.67533 16.9985 9.50355V16.5019C16.9985 17.3301 17.67 18.0015 18.4982 18.0015C19.3264 18.0015 19.9978 17.3301 19.9978 16.5019V9.50355C19.9978 8.67533 19.3265 8.00391 18.4982 8.00391Z" fill="#4CAF50"/>
<path d="M15.4988 8.00391H4.50136C4.22529 8.00391 4.00146 8.22773 4.00146 8.5038V16.5019C4.00123 17.6898 4.8371 18.7137 6.00101 18.9513V22.5005C6.00101 23.3287 6.67243 24.0001 7.50066 24.0001C8.32889 24.0001 9.00031 23.3287 9.00031 22.5005V19.0013H10.9999V22.5005C10.9999 23.3287 11.6713 24.0001 12.4995 24.0001C13.3277 24.0001 13.9992 23.3287 13.9992 22.5005V18.9513C15.1631 18.7137 15.9989 17.6898 15.9987 16.5019V8.5038C15.9987 8.22773 15.7748 8.00391 15.4988 8.00391Z" fill="#4CAF50"/>
<path d="M13.6343 2.07715L14.853 0.859439C15.0516 0.667624 15.057 0.351199 14.8653 0.152589C14.6735 -0.045974 14.357 -0.0514571 14.1584 0.14031C14.1542 0.144341 14.1502 0.148418 14.1461 0.152589L12.7265 1.57229C10.9877 0.81698 9.0135 0.81698 7.27475 1.57229L5.8551 0.151605C5.65654 -0.0402097 5.34007 -0.0346798 5.14825 0.163883C4.96117 0.357619 4.96117 0.664719 5.14825 0.858408L6.36597 2.07711C4.88145 3.05938 3.99235 4.72403 4.00154 6.50407C4.00154 6.78014 4.22536 7.00397 4.50143 7.00397H15.4989C15.7749 7.00397 15.9988 6.78014 15.9988 6.50407C16.0079 4.72408 15.1188 3.05942 13.6343 2.07715Z" fill="#4CAF50"/>
</svg>
