<svg width="9" height="12" viewBox="0 0 9 12" fill="none" xmlns="http://www.w3.org/2000/svg">
<path d="M4.47368 7.7627C3.89473 7.7627 3.42105 8.23638 3.42105 8.81533V10.9469C3.42105 11.5259 3.89473 11.9995 4.47368 11.9995C5.05263 11.9995 5.52631 11.5259 5.52631 10.9469V8.81533C5.52631 8.23638 5.05265 7.7627 4.47368 7.7627Z" fill="black"/>
<path d="M8.28948 1.31579H6.26316C6.02632 0.552632 5.31581 0 4.47369 0C3.63156 0 2.92106 0.552632 2.68421 1.31579H0.684214C0.39474 1.31579 0.157898 1.55263 0.157898 1.84211C0.157898 2.13158 0.39474 2.36842 0.684214 2.36842H2.71053C2.84211 2.81579 3.13158 3.18421 3.52632 3.42105C2.10527 3.8421 1.05263 5.15789 1.05263 6.71053V9.47368C1.05263 9.94737 1.44737 10.3421 1.92106 10.3421H2.63158V8.8421C2.63158 7.81577 3.47369 6.97368 4.5 6.97368C5.52632 6.97368 6.36842 7.81579 6.36842 8.8421V10.3421H7.07895C7.55264 10.3421 7.94737 9.94737 7.94737 9.47368V6.73684C7.94737 5.18419 6.89474 3.8421 5.47367 3.44737C5.8684 3.21053 6.15788 2.8421 6.28946 2.39474H8.31577C8.60525 2.39474 8.84209 2.15789 8.84209 1.86842C8.81579 1.55263 8.57895 1.31579 8.28948 1.31579ZM4.47369 2.92105C3.89474 2.92105 3.42106 2.44737 3.42106 1.86842C3.42106 1.28947 3.89474 0.815789 4.47369 0.815789C5.05263 0.815789 5.52632 1.28947 5.52632 1.86842C5.55263 2.44737 5.07895 2.92105 4.47369 2.92105Z" fill="black"/>
</svg>
