<svg width="35" height="34" viewBox="0 0 35 34" fill="none" xmlns="http://www.w3.org/2000/svg">
<path d="M34.8 17C34.8 25.2153 27.1882 31.875 17.8 31.875C16.1162 31.8773 14.4395 31.6587 12.8126 31.2248C11.5716 31.8538 8.72199 33.0608 3.92799 33.847C3.50299 33.915 3.17999 33.473 3.34786 33.0777C4.10011 31.3013 4.78011 28.934 4.98411 26.775C2.38099 24.1613 0.799988 20.74 0.799988 17C0.799988 8.78475 8.41174 2.125 17.8 2.125C27.1882 2.125 34.8 8.78475 34.8 17ZM10.3625 10.625C10.0807 10.625 9.81044 10.7369 9.61119 10.9362C9.41193 11.1355 9.29999 11.4057 9.29999 11.6875C9.29999 11.9693 9.41193 12.2395 9.61119 12.4388C9.81044 12.6381 10.0807 12.75 10.3625 12.75H25.2375C25.5193 12.75 25.7895 12.6381 25.9888 12.4388C26.188 12.2395 26.3 11.9693 26.3 11.6875C26.3 11.4057 26.188 11.1355 25.9888 10.9362C25.7895 10.7369 25.5193 10.625 25.2375 10.625H10.3625ZM10.3625 15.9375C10.0807 15.9375 9.81044 16.0494 9.61119 16.2487C9.41193 16.448 9.29999 16.7182 9.29999 17C9.29999 17.2818 9.41193 17.552 9.61119 17.7513C9.81044 17.9506 10.0807 18.0625 10.3625 18.0625H25.2375C25.5193 18.0625 25.7895 17.9506 25.9888 17.7513C26.188 17.552 26.3 17.2818 26.3 17C26.3 16.7182 26.188 16.448 25.9888 16.2487C25.7895 16.0494 25.5193 15.9375 25.2375 15.9375H10.3625ZM10.3625 21.25C10.0807 21.25 9.81044 21.3619 9.61119 21.5612C9.41193 21.7605 9.29999 22.0307 9.29999 22.3125C9.29999 22.5943 9.41193 22.8645 9.61119 23.0638C9.81044 23.2631 10.0807 23.375 10.3625 23.375H18.8625C19.1443 23.375 19.4145 23.2631 19.6138 23.0638C19.813 22.8645 19.925 22.5943 19.925 22.3125C19.925 22.0307 19.813 21.7605 19.6138 21.5612C19.4145 21.3619 19.1443 21.25 18.8625 21.25H10.3625Z" fill="#FE385C"/>
</svg>
