<svg width="34" height="34" viewBox="0 0 34 34" fill="none" xmlns="http://www.w3.org/2000/svg">
<path fill-rule="evenodd" clip-rule="evenodd" d="M17 0C15.5338 0 13.0836 0.563125 10.778 1.19C8.41926 1.8275 6.04139 2.58187 4.64314 3.03875C4.05853 3.23181 3.54024 3.58586 3.14781 4.06024C2.75538 4.53462 2.50472 5.11007 2.42464 5.7205C1.15814 15.2341 4.09701 22.2849 7.66276 26.9493C9.17487 28.9445 10.9778 30.7016 13.0114 32.1619C13.8316 32.742 14.5924 33.1861 15.2384 33.49C15.8334 33.7705 16.473 34 17 34C17.527 34 18.1645 33.7705 18.7616 33.49C19.5404 33.1115 20.2855 32.6672 20.9886 32.1619C23.0222 30.7017 24.8252 28.9446 26.3373 26.9493C29.903 22.2849 32.8419 15.2341 31.5754 5.7205C31.4954 5.10978 31.2449 4.53399 30.8524 4.05924C30.46 3.5845 29.9417 3.23006 29.3569 3.03663C27.3271 2.3711 25.2815 1.75467 23.222 1.18788C20.9164 0.56525 18.4663 0 17 0ZM21.5603 10.9352C21.7598 10.7357 22.0304 10.6237 22.3125 10.6237C22.5947 10.6237 22.8653 10.7357 23.0648 10.9352C23.2643 11.1348 23.3764 11.4054 23.3764 11.6875C23.3764 11.9696 23.2643 12.2402 23.0648 12.4398L16.6898 18.8148C16.5911 18.9137 16.4738 18.9922 16.3447 19.0458C16.2156 19.0993 16.0773 19.1269 15.9375 19.1269C15.7978 19.1269 15.6594 19.0993 15.5303 19.0458C15.4012 18.9922 15.284 18.9137 15.1853 18.8148L11.9978 15.6273C11.899 15.5285 11.8206 15.4112 11.7671 15.2821C11.7137 15.153 11.6862 15.0147 11.6862 14.875C11.6862 14.7353 11.7137 14.597 11.7671 14.4679C11.8206 14.3388 11.899 14.2215 11.9978 14.1227C12.0965 14.024 12.2138 13.9456 12.3429 13.8921C12.472 13.8387 12.6103 13.8112 12.75 13.8112C12.8897 13.8112 13.0281 13.8387 13.1571 13.8921C13.2862 13.9456 13.4035 14.024 13.5023 14.1227L15.9375 16.5601L21.5603 10.9352V10.9352Z" fill="#FE385C"/>
</svg>
