<svg width="35" height="34" viewBox="0 0 35 34" fill="none" xmlns="http://www.w3.org/2000/svg">
<path d="M0.599976 8.5C0.599976 7.37283 1.04774 6.29183 1.84477 5.4948C2.6418 4.69777 3.72281 4.25 4.84998 4.25H30.35C31.4771 4.25 32.5581 4.69777 33.3552 5.4948C34.1522 6.29183 34.6 7.37283 34.6 8.5V10.625H0.599976V8.5ZM0.599976 14.875V25.5C0.599976 26.6272 1.04774 27.7082 1.84477 28.5052C2.6418 29.3022 3.72281 29.75 4.84998 29.75H30.35C31.4771 29.75 32.5581 29.3022 33.3552 28.5052C34.1522 27.7082 34.6 26.6272 34.6 25.5V14.875H0.599976ZM6.97498 19.125H9.09998C9.66356 19.125 10.2041 19.3489 10.6026 19.7474C11.0011 20.1459 11.225 20.6864 11.225 21.25V23.375C11.225 23.9386 11.0011 24.4791 10.6026 24.8776C10.2041 25.2761 9.66356 25.5 9.09998 25.5H6.97498C6.41139 25.5 5.87089 25.2761 5.47237 24.8776C5.07386 24.4791 4.84998 23.9386 4.84998 23.375V21.25C4.84998 20.6864 5.07386 20.1459 5.47237 19.7474C5.87089 19.3489 6.41139 19.125 6.97498 19.125Z" fill="#FE385C"/>
</svg>
