<svg width="35" height="34" viewBox="0 0 35 34" fill="none" xmlns="http://www.w3.org/2000/svg">
<path d="M26.3 2.125C26.8636 2.125 27.4041 2.34888 27.8026 2.7474C28.2011 3.14591 28.425 3.68641 28.425 4.25V31.875H31.6125C31.8943 31.875 32.1645 31.9869 32.3638 32.1862C32.563 32.3855 32.675 32.6557 32.675 32.9375C32.675 33.2193 32.563 33.4895 32.3638 33.6888C32.1645 33.8881 31.8943 34 31.6125 34H3.98749C3.7057 34 3.43544 33.8881 3.23619 33.6888C3.03693 33.4895 2.92499 33.2193 2.92499 32.9375C2.92499 32.6557 3.03693 32.3855 3.23619 32.1862C3.43544 31.9869 3.7057 31.875 3.98749 31.875H7.17499V4.25C7.17499 3.68641 7.39887 3.14591 7.79739 2.7474C8.1959 2.34888 8.7364 2.125 9.29999 2.125H26.3ZM22.05 21.25C22.6136 21.25 23.1541 21.0261 23.5526 20.6276C23.9511 20.2291 24.175 19.6886 24.175 19.125C24.175 18.5614 23.9511 18.0209 23.5526 17.6224C23.1541 17.2239 22.6136 17 22.05 17C21.4864 17 20.9459 17.2239 20.5474 17.6224C20.1489 18.0209 19.925 18.5614 19.925 19.125C19.925 19.6886 20.1489 20.2291 20.5474 20.6276C20.9459 21.0261 21.4864 21.25 22.05 21.25V21.25Z" fill="#FE385C"/>
</svg>
