<svg width="38" height="38" viewBox="0 0 38 38" fill="none" xmlns="http://www.w3.org/2000/svg">
<g id="flashlights">
<g id="STATIONERY AND OFFICE">
<path id="Vector" d="M20.0053 7.28691V5.63055C20.0053 5.07574 19.5556 4.62598 19.0008 4.62598C18.4459 4.62598 17.9962 5.07574 17.9962 5.63055V7.28691C17.9962 7.84172 18.4459 8.29148 19.0008 8.29148C19.5556 8.29148 20.0053 7.84172 20.0053 7.28691Z" fill="white"/>
<path id="Vector_2" d="M15.2657 9.39894L14.0943 8.22754C13.702 7.83517 13.0658 7.83517 12.6734 8.22754C12.2811 8.61991 12.2811 9.25607 12.6734 9.64845L13.8448 10.8198C14.2372 11.2122 14.8734 11.2122 15.2657 10.8198C15.6581 10.4275 15.6581 9.79131 15.2657 9.39894Z" fill="white"/>
<path id="Vector_3" d="M24.1562 10.8203L25.3276 9.64893C25.72 9.25656 25.72 8.6204 25.3276 8.22803C24.9353 7.83565 24.2991 7.83565 23.9067 8.22802L22.7353 9.39942C22.343 9.79179 22.343 10.428 22.7353 10.8203C23.1277 11.2127 23.7639 11.2127 24.1562 10.8203Z" fill="white"/>
<path id="Vector_4" d="M19.0117 16.8092L18.992 16.8089C18.0267 16.7982 14.7083 16.8921 13.0135 16.9829C13.0527 17.9779 13.4531 18.9245 14.1398 19.6457C14.5111 20.0358 14.8019 20.4952 14.9956 20.9977C15.1893 21.5002 15.2821 22.0359 15.2687 22.5743C15.231 24.0858 15.2049 25.7278 15.2093 26.1283C15.2013 26.8818 15.3008 31.6188 15.3816 32.031C15.5096 32.7047 16.1165 33.3771 16.7785 33.5414C17.1803 33.6366 18.2542 33.7358 19.0017 33.7365C19.7492 33.7371 20.8218 33.6386 21.2252 33.5451C21.8869 33.3811 22.4932 32.7094 22.6218 32.035C22.7013 31.6215 22.8025 26.8855 22.7941 26.1323C22.7985 25.7311 22.7724 24.0898 22.7347 22.5783C22.7078 21.491 23.1137 20.4375 23.8633 19.6494C24.5503 18.9284 24.9508 17.9817 24.9896 16.9866C23.2938 16.8934 19.9757 16.7999 19.0117 16.8092ZM19.8985 23.4044V26.1433C19.898 26.381 19.8033 26.6088 19.635 26.7767C19.4667 26.9446 19.2387 27.0389 19.001 27.0389C18.7633 27.0389 18.5353 26.9446 18.3671 26.7767C18.1988 26.6088 18.104 26.381 18.1035 26.1433L18.1035 23.4044C18.104 23.1667 18.1988 22.9388 18.3671 22.7709C18.5353 22.603 18.7633 22.5087 19.001 22.5087C19.2387 22.5087 19.4667 22.603 19.635 22.7709C19.8033 22.9388 19.898 23.1667 19.8985 23.4044Z" fill="white"/>
<path id="Vector_5" d="M23.4441 12.9229C23.056 12.8087 19.7178 12.6243 19 12.652C18.2822 12.6243 14.9441 12.8087 14.5559 12.9229C13.918 13.0772 13.3017 13.6975 13.1607 14.3408C13.1128 14.6212 13.0796 14.904 13.0612 15.1879C14.9908 15.0847 18.2485 15.0109 19.0017 15.0172C19.7556 15.0095 23.0115 15.0857 24.9425 15.1876C24.9235 14.9045 24.8896 14.6227 24.841 14.3432C24.6983 13.6975 24.0821 13.0772 23.4441 12.9229Z" fill="white"/>
</g>
</g>
</svg>
