<svg width="35" height="34" viewBox="0 0 35 34" fill="none" xmlns="http://www.w3.org/2000/svg">
<path fill-rule="evenodd" clip-rule="evenodd" d="M8.90002 8.5C8.90018 6.86423 9.37232 5.26325 10.2598 3.88916C11.1473 2.51507 12.4124 1.42624 13.9033 0.753327C15.3943 0.0804133 17.0477 -0.148001 18.6653 0.0954905C20.2828 0.338982 21.7958 1.04404 23.0225 2.12606C24.2493 3.20807 25.1378 4.62109 25.5815 6.19555C26.0251 7.77002 26.005 9.43905 25.5236 11.0024C25.0422 12.5657 24.1199 13.9569 22.8674 15.0091C21.6149 16.0612 20.0855 16.7297 18.4625 16.9341V28.6875C18.4625 28.9693 18.3506 29.2395 18.1513 29.4388C17.9521 29.6381 17.6818 29.75 17.4 29.75C17.1182 29.75 16.848 29.6381 16.6487 29.4388C16.4495 29.2395 16.3375 28.9693 16.3375 28.6875V16.9363C14.2826 16.6774 12.3929 15.6771 11.0234 14.1233C9.65385 12.5694 8.8988 10.5691 8.90002 8.49788V8.5ZM14.1976 26.7198C14.2437 26.9976 14.1776 27.2823 14.0139 27.5115C13.8501 27.7406 13.6021 27.8953 13.3243 27.9416C11.8113 28.1924 10.6043 28.5685 9.8074 28.9893C9.51467 29.13 9.24863 29.3205 9.02115 29.5524C8.96972 29.6084 8.92871 29.6732 8.90002 29.7436V29.75L8.90427 29.767C8.91264 29.7917 8.92406 29.8153 8.93827 29.8371C9.02215 29.9601 9.12634 30.0679 9.2464 30.1559C9.59702 30.4321 10.1708 30.7296 10.974 30.9953C12.5699 31.5265 14.8415 31.875 17.4 31.875C19.9585 31.875 22.2302 31.5286 23.826 30.9953C24.6293 30.7275 25.203 30.4321 25.5536 30.1559C25.6744 30.068 25.7793 29.9602 25.8639 29.8371C25.8774 29.8151 25.8881 29.7916 25.8958 29.767L25.9 29.75V29.7415C25.8713 29.6711 25.8303 29.6063 25.7789 29.5503C25.5513 29.3191 25.2852 29.1293 24.9926 28.9893C24.1936 28.5685 22.9888 28.1924 21.4758 27.9416C21.3348 27.9225 21.1992 27.8753 21.0768 27.8028C20.9545 27.7303 20.8479 27.634 20.7635 27.5196C20.679 27.4051 20.6184 27.2749 20.5852 27.1366C20.5521 26.9983 20.547 26.8547 20.5703 26.7144C20.5937 26.5741 20.6449 26.4399 20.7211 26.3198C20.7973 26.1997 20.8967 26.0961 21.0137 26.0152C21.1306 25.9342 21.2626 25.8775 21.4019 25.8486C21.5411 25.8196 21.6847 25.8188 21.8243 25.8464C23.4605 26.1163 24.9098 26.5434 25.9829 27.1086C26.9625 27.625 28.025 28.475 28.025 29.75C28.025 30.6553 27.4725 31.348 26.869 31.8261C26.2528 32.3106 25.424 32.7038 24.4975 33.0119C22.6318 33.6345 20.1221 34 17.4 34C14.6779 34 12.1683 33.6345 10.3025 33.0119C9.37602 32.7038 8.54727 32.3106 7.93102 31.8261C7.32752 31.348 6.77502 30.6553 6.77502 29.75C6.77502 28.4771 7.83752 27.625 8.81715 27.1086C9.89027 26.5434 11.3395 26.1163 12.9758 25.8464C13.2536 25.8003 13.5384 25.8664 13.7675 26.0302C13.9966 26.1939 14.1513 26.442 14.1976 26.7198Z" fill="#FE385C"/>
</svg>
