<svg width="34" height="34" viewBox="0 0 34 34" fill="none" xmlns="http://www.w3.org/2000/svg">
<path d="M29.3994 25.2236H4.60065C2.64561 25.2236 1.0625 26.8067 1.0625 28.7618C1.0625 30.7061 2.64561 32.2893 4.60065 32.2893H29.3994C31.3544 32.2893 32.9375 30.7061 32.9375 28.7618C32.9375 26.8067 31.3544 25.2236 29.3994 25.2236ZM6.80002 28.7618C6.80002 28.2517 7.20377 27.848 7.71376 27.848C8.2131 27.848 8.61686 28.2517 8.61686 28.7618C8.61686 29.2611 8.21311 29.6649 7.71376 29.6649C7.20378 29.6649 6.80002 29.2611 6.80002 28.7618ZM11.4431 28.7618C11.4431 28.2517 11.8469 27.848 12.3569 27.848C12.8562 27.848 13.2706 28.2517 13.2706 28.7618C13.2706 29.2611 12.8562 29.6649 12.3569 29.6649C11.8469 29.6649 11.4431 29.2611 11.4431 28.7618ZM16.0863 28.7618C16.0863 28.2517 16.5006 27.848 17 27.848C17.4994 27.848 17.9137 28.2517 17.9137 28.7618C17.9137 29.2611 17.4994 29.6649 17 29.6649C16.5006 29.6649 16.0863 29.2611 16.0863 28.7618ZM20.7294 28.7618C20.7294 28.2517 21.1438 27.848 21.6431 27.848C22.1531 27.848 22.5569 28.2517 22.5569 28.7618C22.5569 29.2611 22.1531 29.6649 21.6431 29.6649C21.1438 29.6649 20.7294 29.2611 20.7294 28.7618ZM26.2862 29.6649C25.7869 29.6649 25.3831 29.2611 25.3831 28.7618C25.3831 28.2517 25.7869 27.848 26.2862 27.848C26.7962 27.848 27.2 28.2517 27.2 28.7618C27.2 29.2611 26.7962 29.6649 26.2862 29.6649Z" fill="#FE385C"/>
<path d="M17 1.71094C13.0156 1.71094 9.76438 4.95155 9.76438 8.94656V9.65841C8.58501 10.1259 7.74561 11.2734 7.74561 12.6122V19.9753C7.74561 21.739 9.16939 23.1628 10.9331 23.1628H23.0669C24.8306 23.1628 26.2544 21.739 26.2544 19.9753V12.6122C26.2544 11.2734 25.415 10.1259 24.2356 9.65841V8.94655C24.2356 4.95154 20.9844 1.71094 17 1.71094ZM18.0625 18.4028V18.541C18.0625 19.1253 17.5844 19.6035 17 19.6035C16.4156 19.6035 15.9375 19.1253 15.9375 18.541V18.4028C14.9175 17.9778 14.195 16.979 14.195 15.7997C14.195 14.2591 15.4487 12.9947 17 12.9947C18.5513 12.9947 19.805 14.2591 19.805 15.7997C19.805 16.979 19.0825 17.9778 18.0625 18.4028ZM11.8894 8.94655C11.8894 6.12033 14.1843 3.83593 17 3.83593C19.8157 3.83593 22.1106 6.12032 22.1106 8.94655V9.4247H11.8894V8.94655Z" fill="#FE385C"/>
<path d="M17 15.1201C16.6281 15.1201 16.32 15.4282 16.32 15.8001C16.32 16.1826 16.6281 16.4907 17 16.4907C17.3718 16.4907 17.68 16.1826 17.68 15.8001C17.68 15.4282 17.3718 15.1201 17 15.1201Z" fill="#FE385C"/>
</svg>
