<svg width="183" height="141" viewBox="0 0 183 141" fill="none" xmlns="http://www.w3.org/2000/svg">
<g clip-path="url(#clip0_410_3289)">
<path d="M143.651 75.5442C149.207 70.3181 153.189 63.6237 155.14 56.2272C157.091 48.8307 156.934 41.0309 154.685 33.7202C152.437 26.4096 148.189 19.8835 142.426 14.8887C136.664 9.89396 129.62 6.63233 122.102 5.47705C114.583 4.32177 106.893 5.31951 99.912 8.35611C92.9306 11.3927 86.9399 16.3455 82.6254 22.6477C78.3109 28.9499 75.8468 36.3469 75.5152 43.9923C75.1835 51.6377 76.9977 59.2226 80.7501 65.879L72.5237 73.6146L74.492 87.376L61.7402 83.7707L51.4446 93.4528L53.4129 107.214L40.6106 103.609L31.7449 111.92L32.9562 120.383L25.2344 118.115L20.0866 122.956L19.3127 135.702L38.1208 140.492L99.4404 82.9412C106.716 86.2201 114.791 87.2671 122.655 85.9514C130.518 84.6357 137.822 81.0156 143.651 75.5442ZM137.662 25.3902C139.232 27.0814 140.268 29.203 140.639 31.4867C141.01 33.7704 140.699 36.1134 139.746 38.2195C138.793 40.3255 137.241 42.0998 135.286 43.3179C133.33 44.536 131.06 45.1432 128.761 45.0627C126.463 44.9821 124.24 44.2174 122.374 42.8653C120.507 41.5133 119.082 39.6346 118.277 37.4669C117.472 35.2993 117.324 32.9402 117.852 30.688C118.38 28.4359 119.56 26.3919 121.243 24.8147C123.497 22.7021 126.492 21.5762 129.571 21.6841C132.65 21.792 135.56 23.125 137.662 25.3902Z" fill="#263238"/>
<path d="M137.662 25.3901C137.662 25.4748 136.905 24.6792 135.357 23.6975C133.173 22.3306 130.598 21.735 128.039 22.0048C125.974 22.229 124.011 23.0275 122.371 24.3108C120.732 25.5941 119.479 27.3115 118.755 29.2705C118.03 31.2296 117.862 33.3529 118.269 35.4026C118.677 37.4523 119.643 39.3475 121.06 40.8757C122.478 42.404 124.29 43.5049 126.294 44.0553C128.298 44.6056 130.415 44.5836 132.408 43.9916C134.4 43.3997 136.189 42.2613 137.575 40.7038C138.961 39.1464 139.888 37.2316 140.253 35.1738C140.721 32.6379 140.336 30.0175 139.159 27.726C138.318 26.0333 137.578 25.3563 137.662 25.2886C137.746 25.2209 137.881 25.4409 138.217 25.7964C138.712 26.309 139.147 26.8769 139.513 27.489C140.881 29.8237 141.392 32.5666 140.959 35.2415C140.71 36.8321 140.146 38.3562 139.3 39.7232C138.454 41.0901 137.344 42.2721 136.035 43.1989C134.727 44.1257 133.246 44.7785 131.682 45.1184C130.118 45.4583 128.501 45.4784 126.929 45.1775C124.39 44.7158 122.067 43.4416 120.306 41.5446C118.545 39.6475 117.44 37.2291 117.155 34.6491C116.966 33.0501 117.099 31.4293 117.544 29.8827C117.989 28.3361 118.738 26.8951 119.747 25.645C120.755 24.3949 122.003 23.3612 123.416 22.6051C124.829 21.849 126.378 21.3858 127.972 21.2431C130.66 21.0005 133.349 21.7066 135.576 23.2404C136.192 23.6381 136.757 24.1099 137.258 24.6454C137.528 25.2039 137.696 25.3901 137.662 25.3901Z" fill="#263238"/>
<path d="M143.651 75.5442C143.651 75.5442 143.466 75.7474 143.079 76.1028L141.313 77.7109C138.89 79.6837 136.261 81.3863 133.473 82.7889C128.155 85.3501 122.347 86.7203 116.451 86.805C110.556 86.8897 104.712 85.687 99.3227 83.2798H99.6591L38.4404 140.831L38.2554 141H38.0199L19.1109 136.159H18.7239V135.753C18.9595 131.792 19.2118 127.425 19.481 123.007V122.821L19.6156 122.685L24.7802 117.844L24.9821 117.658H25.2344L33.0403 119.859L32.4178 120.4C32.0309 117.777 31.6271 114.899 31.2066 111.937V111.683L31.3916 111.514L40.2741 103.253L40.476 103.067H40.7452L53.5474 106.673L52.9082 107.231C52.2857 102.864 51.6128 98.1923 50.9399 93.4697V93.1989L51.1249 93.0296L53.8334 90.5075L61.4206 83.3983L61.6225 83.1951L61.9084 83.2798L74.6939 86.8852L74.0546 87.4437C73.3929 82.8058 72.7368 78.2187 72.0863 73.6823V73.4284L72.2714 73.2422L80.5146 65.5067V66.116C77.3247 60.4142 75.5204 54.034 75.249 47.4966C75.0919 44.338 75.3179 41.1719 75.922 38.0684C76.4732 35.0165 77.3765 32.0398 78.6136 29.1987C81.7341 22.0132 86.8309 15.8748 93.3035 11.5071C99.7761 7.13936 107.355 4.72424 115.146 4.54636C122.938 4.36847 130.617 6.43522 137.28 10.5031C143.943 14.5709 149.311 20.4703 152.752 27.5061C155.979 34.1381 157.357 41.5267 156.739 48.8846C156.313 54.3734 154.767 59.7149 152.197 64.5757C151.945 65.0835 151.693 65.5574 151.44 66.0314L150.616 67.3178C150.061 68.1472 149.606 69.0105 149.068 69.6368C147.975 70.9571 147.15 72.1589 146.326 73.0221L144.442 74.901L143.786 75.5104L144.375 74.8333C144.812 74.3763 145.418 73.7331 146.191 72.8867C146.965 72.0404 147.874 70.8555 148.866 69.5014C149.371 68.8243 149.825 68.0118 150.347 67.1824L151.171 65.879L151.894 64.4403C154.51 59.6238 156.123 54.3216 156.635 48.8572C157.147 43.3927 156.547 37.8807 154.872 32.6572C153.196 27.4338 150.481 22.6086 146.891 18.476C143.301 14.3434 138.912 10.99 133.992 8.62054C129.071 6.25105 123.723 4.9151 118.272 4.69421C112.821 4.47332 107.383 5.37212 102.289 7.33577C97.1954 9.29942 92.5525 12.2867 88.644 16.1155C84.7354 19.9442 81.6431 24.5341 79.5557 29.605C78.3518 32.3751 77.4766 35.2783 76.9482 38.2546C76.3578 41.2914 76.1375 44.3892 76.2921 47.4796C76.5885 53.8338 78.3571 60.0302 81.4567 65.5744L81.6418 65.9298L81.3726 66.1837L73.1293 73.9193L73.2808 73.4961C73.9425 78.0099 74.5985 82.5971 75.249 87.2576L75.3668 88.0193L74.6266 87.8161L61.8243 84.2107L62.3122 84.0923L54.725 91.2015L51.9997 93.7744L52.1511 93.3173L53.8334 107.147L53.9512 107.908L53.1942 107.705L40.4087 104.083L40.8966 103.964L32.0309 112.292L32.1823 111.852C32.586 114.747 33.0066 117.624 33.3767 120.316L33.4777 121.06L32.7543 120.857L24.9653 118.657L25.4195 118.538L20.2548 123.379L20.4231 123.058C20.1371 127.476 19.8847 131.826 19.6324 135.804L19.2791 135.313L38.1713 140.12L37.7507 140.221C62.2449 117.269 83.3745 97.549 99.2554 82.7043L99.4068 82.5688H99.5918C104.903 84.9735 110.667 86.1972 116.491 86.1563C122.315 86.1154 128.061 84.8109 133.339 82.3319C136.125 81.0014 138.764 79.3788 141.212 77.4908L143.046 75.9674C143.432 75.6966 143.651 75.5442 143.651 75.5442Z" fill="#263238"/>
<path d="M142.305 70.9231C147.87 65.7022 151.862 59.0097 153.822 51.6121C155.782 44.2146 155.632 36.4112 153.389 29.0955C151.146 21.7798 146.9 15.2477 141.139 10.2472C135.377 5.24672 128.332 1.9801 120.81 0.821437C113.289 -0.337224 105.596 0.658924 98.6108 3.6958C91.626 6.73267 85.6325 11.6875 81.3167 17.9928C77.0009 24.298 74.5373 31.6989 74.208 39.3476C73.8787 46.9964 75.697 54.5838 79.4548 61.241L71.2284 68.9596L73.1966 82.738L60.4112 79.1326L50.0987 88.7978L52.067 102.576L39.2816 98.9539L30.4159 107.282L31.6103 115.745L23.8213 113.545L18.6567 118.386L17.8828 131.132L36.775 135.922L98.0946 78.3709C105.374 81.6454 113.453 82.6854 121.317 81.3605C129.182 80.0357 136.483 76.4049 142.305 70.9231ZM136.266 20.803C137.849 22.4842 138.901 24.6006 139.287 26.8839C139.674 29.1672 139.378 31.5145 138.437 33.6284C137.496 35.7423 135.953 37.5275 134.003 38.7579C132.052 39.9882 129.783 40.6081 127.482 40.5392C125.181 40.4703 122.952 39.7155 121.078 38.3707C119.204 37.0258 117.769 35.1513 116.954 32.9848C116.14 30.8184 115.984 28.4575 116.505 26.2014C117.025 23.9453 118.2 21.8956 119.88 20.3121C122.122 18.1992 125.104 17.0648 128.174 17.1568C131.244 17.2488 134.153 18.5596 136.266 20.803Z" fill="#FE385C"/>
<path d="M136.266 20.8031C136.266 20.8877 135.492 20.0921 133.944 19.1104C131.766 17.7436 129.196 17.1479 126.643 17.4177C124.578 17.642 122.615 18.4405 120.975 19.7237C119.335 21.007 118.083 22.7244 117.358 24.6834C116.634 26.6425 116.466 28.7658 116.873 30.8156C117.28 32.8653 118.247 34.7604 119.664 36.2887C121.082 37.8169 122.894 38.9179 124.898 39.4682C126.902 40.0185 129.019 39.9965 131.011 39.4046C133.004 38.8126 134.793 37.6742 136.179 36.1168C137.564 34.5594 138.492 32.6445 138.857 30.5867C139.315 28.0507 138.931 25.4332 137.763 23.139C136.905 21.4463 136.182 20.7692 136.266 20.7015C136.471 20.8465 136.658 21.0172 136.821 21.2093C137.311 21.7219 137.74 22.2899 138.1 22.902C139.527 25.2704 140.069 28.0725 139.63 30.8068C139.313 32.8058 138.499 34.6918 137.264 36.2897C136.029 37.8876 134.412 39.1457 132.565 39.9472C130.372 40.9211 127.937 41.1986 125.583 40.7428C123.048 40.2734 120.729 38.9969 118.97 37.1013C117.21 35.2058 116.102 32.7915 115.809 30.2143C115.621 28.6141 115.753 26.992 116.2 25.4444C116.646 23.8967 117.396 22.455 118.407 21.2047C119.417 19.9544 120.667 18.921 122.082 18.1658C123.497 17.4106 125.048 16.949 126.643 16.8083C129.327 16.5568 132.013 17.2639 134.23 18.8057C134.849 19.1984 135.415 19.6707 135.913 20.2106C136.056 20.3916 136.175 20.5908 136.266 20.8031Z" fill="#263238"/>
<path d="M142.305 70.9232L141.716 71.4817L139.933 73.1744C137.512 75.1492 134.883 76.852 132.094 78.2524C126.778 80.8133 120.973 82.1833 115.08 82.2681C109.187 82.3528 103.346 81.1503 97.96 78.7433H98.2796L37.0105 136.193L36.8254 136.362H36.5899L17.7482 131.538L17.3781 131.436V131.047C17.6136 127.069 17.8828 122.719 18.1351 118.301V118.115L18.2865 117.98L23.5521 113.122L23.754 112.935H24.0232L31.8122 115.119L31.1897 115.678C30.8196 113.054 30.3991 110.176 29.9953 107.214V106.96L30.1972 106.774L39.0461 98.463L39.2648 98.2599H39.5339L52.1511 102.102L51.5119 102.661L49.5436 88.8994V88.6286L49.7286 88.4424C50.6034 87.6468 51.5287 86.7497 52.4708 85.8864L60.0411 78.7772L60.2598 78.5741H60.529L73.3144 82.1795L72.6751 82.738C72.0246 78.1565 71.3517 73.5976 70.6564 69.0612V68.7904L70.8582 68.6211L79.0678 60.9364L78.9669 61.5457C75.7847 55.8407 73.9809 49.4624 73.7013 42.9263C73.5524 39.7678 73.7783 36.6027 74.3742 33.4981C74.9284 30.447 75.8316 27.4706 77.0659 24.6284C80.8688 15.6323 87.7379 8.29713 96.4371 3.94299C105.136 -0.411149 115.094 -1.49836 124.519 0.877013C133.944 3.25238 142.217 8.93436 147.849 16.9004C153.481 24.8665 156.103 34.5936 155.242 44.3312C154.813 49.8196 153.267 55.1606 150.7 60.0223L149.96 61.478L149.119 62.7645C148.563 63.5939 148.109 64.4571 147.588 65.0834C146.494 66.4037 145.653 67.5886 144.829 68.4688L142.995 70.2969L142.339 70.9232C142.339 70.9232 142.524 70.6862 142.928 70.2461C143.331 69.806 143.954 69.1289 144.728 68.2995C145.502 67.4701 146.41 66.2514 147.403 64.9142C147.924 64.2202 148.362 63.4077 148.9 62.5952C149.152 62.172 149.421 61.7319 149.707 61.2918L150.431 59.8531C152.907 55.0159 154.383 49.7243 154.771 44.2974C155.51 34.78 152.874 25.3069 147.329 17.5602C141.785 9.81345 133.691 4.29436 124.485 1.98283C115.28 -0.328697 105.558 0.716925 97.0462 4.93404C88.5343 9.15115 81.783 16.2669 77.9912 25.0178C76.7842 27.794 75.9034 30.7025 75.3668 33.6843C74.7826 36.7161 74.5679 39.8083 74.7275 42.8924C75.0198 49.229 76.7828 55.4086 79.8754 60.9364L80.0772 61.2749L79.7912 61.5457L71.548 69.3997L71.6994 68.9597C72.3555 73.496 73.0116 78.1001 73.6845 82.7211L73.7854 83.4998L73.0452 83.2797L60.2598 79.5558H60.7308L53.1605 86.6651C52.2184 87.5452 51.2932 88.3577 50.4184 89.221L50.5866 88.7809C51.2595 93.5035 51.9156 98.1753 52.5549 102.542L52.6558 103.321L51.9156 103.101L39.1302 99.4955L39.6012 99.3771L30.7355 107.705L30.8869 107.265C31.3075 110.159 31.7113 113.037 32.0814 115.644L32.1823 116.405L31.4589 116.202L23.6699 114.002L24.1409 113.883L18.9763 118.724L19.1277 118.403C18.8585 122.804 18.5894 127.171 18.337 131.149L17.9837 130.658L36.8759 135.414L36.4553 135.533L97.8759 78.0832L98.0105 77.9478L98.1955 78.0324C103.508 80.4361 109.271 81.6648 115.096 81.6356C120.92 81.6064 126.671 80.32 131.959 77.8631C134.74 76.5225 137.378 74.9005 139.832 73.0221L141.666 71.4817C141.868 71.2832 142.082 71.0967 142.305 70.9232Z" fill="#263238"/>
<path d="M138.587 67.7071C140.569 65.5463 142.386 63.2377 144.021 60.801C145.867 57.9029 147.267 54.7416 148.176 51.4235C149.54 46.583 149.873 41.5076 149.154 36.5287C148.435 31.5498 146.68 26.7796 144.004 22.5296C140.602 17.2004 135.853 12.8774 130.243 10.0037C127.237 8.43548 124.008 7.3449 120.671 6.77073C118.954 6.44803 117.217 6.24443 115.473 6.16136C113.691 6.13378 111.91 6.22425 110.14 6.43219C102.71 7.28892 95.7482 10.5195 90.277 15.6497C84.8058 20.78 81.1131 27.5397 79.7408 34.9369C79.4014 36.6975 79.1766 38.4787 79.0678 40.2688C79.0192 42.027 79.0979 43.7864 79.3034 45.533C79.6504 48.9235 80.5128 52.2403 81.8605 55.3675C84.3168 61.2006 88.2779 66.2673 93.3337 70.043C97.7346 73.3399 102.848 75.5439 108.256 76.4752C112.714 77.2703 117.283 77.1956 121.714 76.2551C125.083 75.5967 128.334 74.4266 131.354 72.7851C133.893 71.2853 136.312 69.5874 138.587 67.7071C138.46 67.8554 138.319 67.9914 138.167 68.1133L136.905 69.2644C136.229 69.8879 135.504 70.4541 134.735 70.957C133.727 71.7236 132.665 72.4139 131.555 73.0221C128.539 74.7567 125.277 76.0181 121.882 76.7629C116.896 77.8759 111.732 77.9097 106.732 76.8621C101.731 75.8145 97.0097 73.7093 92.8795 70.6862C87.694 66.8345 83.6279 61.6562 81.1034 55.6891C79.7001 52.4627 78.8034 49.0364 78.4454 45.533C78.237 43.7355 78.1471 41.926 78.1762 40.1165C78.2739 38.2766 78.4874 36.4448 78.8155 34.6322C80.2325 27.0468 84.027 20.1175 89.6429 14.8599C95.2588 9.60229 102.401 6.29284 110.022 5.41659C113.624 4.95014 117.277 5.07591 120.839 5.78897C124.268 6.4009 127.582 7.54286 130.664 9.17433C136.4 12.1395 141.239 16.5998 144.677 22.0895C147.388 26.4426 149.148 31.3256 149.841 36.4148C150.534 41.5041 150.144 46.6834 148.698 51.6097C147.725 54.9632 146.25 58.148 144.324 61.0549C143.651 62.131 142.891 63.15 142.053 64.1017C141.498 64.8436 140.879 65.5346 140.202 66.1668L138.991 67.3516L138.587 67.7071Z" fill="#263238"/>
<path d="M136.939 38.813C136.855 38.813 137.78 37.9498 138.907 36.1217C140.492 33.5365 141.168 30.4901 140.825 27.4721C140.591 25.2637 139.808 23.15 138.55 21.3251C137.292 19.5002 135.598 18.0227 133.625 17.0283C131.326 15.8527 128.733 15.3874 126.172 15.6911C123.401 16.0223 120.806 17.2328 118.765 19.147C116.723 21.0613 115.34 23.58 114.817 26.338C114.32 28.9122 114.601 31.5771 115.624 33.9889C116.475 36.0354 117.821 37.8353 119.54 39.2247C121.259 40.6142 123.296 41.5491 125.466 41.9445C128.414 42.4711 131.452 42.0071 134.113 40.6242C135.997 39.6086 136.855 38.7284 136.939 38.813C137.023 38.8977 136.754 39.0669 136.333 39.4563C135.723 40.039 135.046 40.5449 134.314 40.9627C131.587 42.5571 128.396 43.155 125.28 42.6554C123.441 42.3515 121.68 41.6809 120.102 40.6829C118.523 39.685 117.159 38.3798 116.089 36.8441C115.018 35.3083 114.264 33.5729 113.869 31.7397C113.474 29.9065 113.448 28.0125 113.79 26.1687C114.324 23.1909 115.799 20.4662 117.997 18.401C120.195 16.3359 122.998 15.041 125.987 14.7093C128.759 14.3724 131.568 14.8857 134.045 16.1819C136.28 17.3546 138.162 19.108 139.496 21.26C140.648 23.1174 141.345 25.2231 141.531 27.4044C141.825 30.5606 141.016 33.7211 139.244 36.3417C138.762 37.0558 138.197 37.7093 137.561 38.2883C137.191 38.6607 136.956 38.9315 136.939 38.813Z" fill="#263238"/>
<path d="M31.8122 133.603C31.6271 133.4 45.422 120.062 62.6487 103.964C79.8754 87.8669 93.9898 74.8671 94.2085 75.0702C94.4272 75.2733 80.5987 88.6116 63.372 104.709C46.1453 120.806 31.9636 133.806 31.8122 133.603Z" fill="#263238"/>
<path d="M39.433 52.8285L39.9881 51.5759L40.7452 52.7269C41.3419 53.6535 42.196 54.3834 43.2013 54.8259L44.4462 55.4014L43.3023 56.1462C42.384 56.7543 41.6551 57.6109 41.1994 58.6175L40.6442 59.87L39.8872 58.719C39.2853 57.797 38.4328 57.0684 37.4311 56.6201L36.1862 56.0615L37.3301 55.2998C38.2521 54.696 38.982 53.8381 39.433 52.8285Z" fill="#FE385C"/>
<path d="M1.88417 43.4172L2.20381 42.6893L2.6412 43.3495C2.98768 43.889 3.48528 44.3131 4.07115 44.5682L4.79454 44.9067L4.12162 45.3468C3.59303 45.6968 3.17321 46.1896 2.91037 46.7687L2.59073 47.5135L2.15334 46.8364C1.79464 46.3282 1.29826 45.9345 0.723387 45.7023L0 45.2961L0.672918 44.856C1.19692 44.4936 1.6151 43.9968 1.88417 43.4172Z" fill="#FE385C"/>
<path d="M120.099 107.79L120.435 107.062L120.856 107.739C121.208 108.273 121.704 108.696 122.286 108.958L123.009 109.279L122.353 109.719C121.817 110.068 121.396 110.569 121.142 111.158L120.806 111.886L120.368 111.226C120.023 110.688 119.533 110.259 118.955 109.99L118.215 109.668L118.888 109.228C119.424 108.88 119.845 108.379 120.099 107.79Z" fill="#FE385C"/>
<path d="M177.987 74.7825L178.542 73.5299L179.299 74.6809C179.877 75.5981 180.707 76.3272 181.688 76.7799L182.933 77.3554L181.789 78.1001C180.875 78.7086 180.151 79.5656 179.703 80.5714L179.131 81.841L178.391 80.673C177.781 79.7578 176.931 79.0311 175.934 78.5741L174.689 78.0155L175.833 77.2538C176.772 76.6544 177.519 75.7967 177.987 74.7825Z" fill="#FE385C"/>
<path d="M170.45 28.5386L171.392 26.4227L172.654 28.3693C173.668 29.917 175.097 31.1437 176.776 31.907L178.878 32.838L176.944 34.1244C175.406 35.1444 174.186 36.5824 173.428 38.2715L172.502 40.3873L171.241 38.4407C170.217 36.8955 168.783 35.67 167.102 34.903L164.999 33.9551L166.934 32.6856C168.477 31.6706 169.697 30.2312 170.45 28.5386Z" fill="#FE385C"/>
<path d="M27.7579 14.2861L28.6999 12.1703L29.9617 14.0999C30.9705 15.652 32.401 16.8799 34.0833 17.6376L36.1862 18.5855L34.2683 19.855C32.7258 20.8701 31.5054 22.3095 30.7523 24.0021L29.8103 26.1179L28.599 24.1883C27.5902 22.6362 26.1596 21.4083 24.4774 20.6506L22.3745 19.7027L24.2923 18.4332C25.8162 17.4109 27.0185 15.9722 27.7579 14.2861Z" fill="#FE385C"/>
</g>
<defs>
<clipPath id="clip0_410_3289">
<rect width="183" height="141" fill="white"/>
</clipPath>
</defs>
</svg>
