<svg width="24" height="24" viewBox="0 0 24 24" fill="none" xmlns="http://www.w3.org/2000/svg">
<path d="M18.5504 12.7515C18.5191 9.71024 21.03 8.25479 21.1413 8.18176C19.7311 6.12119 17.5366 5.83775 16.7524 5.80645C14.8866 5.61518 13.1077 6.90542 12.1583 6.90542C11.2123 6.90542 9.74819 5.83254 8.19885 5.86036C6.16088 5.89166 4.28463 7.04627 3.23435 8.86862C1.11813 12.5411 2.69182 17.9803 4.75413 20.9625C5.76268 22.4197 6.96598 24.056 8.54314 23.9986C10.0629 23.9377 10.6368 23.0144 12.4747 23.0144C14.3127 23.0144 14.8292 23.9986 16.4359 23.969C18.0722 23.9377 19.1068 22.4823 20.1067 21.0216C21.2648 19.3297 21.7412 17.6899 21.7708 17.6082C21.7325 17.5874 18.5834 16.3823 18.5504 12.7515Z" fill="#030104"/>
<path d="M15.5283 3.83249C16.3647 2.81872 16.9315 1.40675 16.7768 0C15.5683 0.0486886 14.1093 0.801623 13.2416 1.81713C12.4644 2.71613 11.7879 4.1507 11.9688 5.52963C13.3147 5.63571 14.6919 4.84452 15.5283 3.83249Z" fill="#030104"/>
</svg>
