<svg width="35" height="34" viewBox="0 0 35 34" fill="none" xmlns="http://www.w3.org/2000/svg">
<path d="M28.225 5.3125C28.225 4.46712 28.5608 3.65637 29.1586 3.0586C29.7563 2.46083 30.5671 2.125 31.4125 2.125C32.2579 2.125 33.0686 2.46083 33.6664 3.0586C34.2642 3.65637 34.6 4.46712 34.6 5.3125V28.6875C34.6 29.5329 34.2642 30.3436 33.6664 30.9414C33.0686 31.5392 32.2579 31.875 31.4125 31.875C30.5671 31.875 29.7563 31.5392 29.1586 30.9414C28.5608 30.3436 28.225 29.5329 28.225 28.6875V5.3125ZM26.1 6.851C21.7076 8.86975 16.4546 9.99813 11.225 10.37V23.6236C11.9969 23.6672 12.7677 23.7274 13.537 23.8042C17.8996 24.2377 22.1177 25.2238 26.1 27.1192V6.851ZM9.09998 23.5131V10.4847C7.65498 10.5421 6.1271 10.5761 4.83298 10.5974C3.70745 10.613 2.63308 11.0701 1.84132 11.8702C1.04956 12.6703 0.603768 13.7494 0.599976 14.875L0.599976 19.125C0.599976 21.4753 2.50398 23.3665 4.83723 23.3941C5.18858 23.3985 5.53991 23.4042 5.89123 23.4111C6.96117 23.4325 8.03083 23.4665 9.09998 23.5131ZM12.0537 25.8102C12.6594 25.8549 13.2628 25.9101 13.86 25.976L14.3976 29.5672C14.4561 29.8746 14.446 30.191 14.3681 30.494C14.2901 30.797 14.1463 31.079 13.9467 31.32C13.7472 31.5609 13.4969 31.7549 13.2138 31.8879C12.9306 32.0209 12.6216 32.0898 12.3087 32.0896H11.1442C10.7312 32.0896 10.3271 31.9692 9.98138 31.7431C9.63568 31.5171 9.36336 31.1951 9.19773 30.8167L6.40548 25.5468C7.60451 25.5767 8.80311 25.622 10.001 25.6828C10.6959 25.7189 11.3822 25.7614 12.0537 25.8102Z" fill="#FE385C"/>
</svg>
