<svg width="50" height="50" viewBox="0 0 150 150" fill="none" xmlns="http://www.w3.org/2000/svg">
<rect width="150" height="150" rx="20" fill="#E11C42"/>
<circle cx="66.5" cy="58.5" r="4.5" fill="white"/>
<circle cx="124" cy="58.5" r="4.5" fill="white"/>
<path d="M44 55.5H23.5C22.3 55.5001 22 56.5 22 57V93.5C22 95.1 23 95.5 23.5 95.5H44.5C53.7 95.5 56 86.8334 56 82.5V68C56 57.6 48 55.3334 44 55.5Z" fill="white"/>
<path d="M110 63C111.2 63 111.5 62 111.5 61.5V56C111.5 55.2 110.5 55 110 55H88.5C80.5 55 77.5 62.1667 77.5 65.5V85C77.5 93 84.966 95.8396 88.2993 95.8396C92.966 95.8396 102.6 96 107 96C111.4 96 112.5 92 112.5 90V77.5C112.5 72.7 108.833 71.5 107 71.5H91.5C90.7 71.5 90.5 72.1667 90.5 72.5V78C90.5 79.2 91.1667 79.5 91.5 79.5H104.5V88H91.5C86.7 88 85.5 84.6667 85.5 83V68C85.5 64 89.5 63 91.5 63H110Z" fill="white"/>
<path d="M62.5 68.5C62.5 67.9477 62.9477 67.5 63.5 67.5H69.5C70.0523 67.5 70.5 67.9477 70.5 68.5V94.5C70.5 95.0523 70.0523 95.5 69.5 95.5H63.5C62.9477 95.5 62.5 95.0523 62.5 94.5V68.5Z" fill="white"/>
<path d="M120 68.5C120 67.9477 120.448 67.5 121 67.5H127C127.552 67.5 128 67.9477 128 68.5V94.5C128 95.0523 127.552 95.5 127 95.5H121C120.448 95.5 120 95.0523 120 94.5V68.5Z" fill="white"/>
<path d="M29 87.5V63H43.8816C47.5763 63 48.5 66.0625 48.5 67.5938V82.3958C48.5 86.4792 45.7632 87.5 44.3947 87.5H29Z" fill="#E11C42"/>
</svg>
