<svg width="34" height="34" viewBox="0 0 24 25" fill="none" xmlns="http://www.w3.org/2000/svg">
<path d="M12 24.5C12.7956 24.5 13.5587 24.1839 14.1213 23.6213C14.6839 23.0587 15 22.2956 15 21.5H9C9 22.2956 9.31607 23.0587 9.87868 23.6213C10.4413 24.1839 11.2044 24.5 12 24.5ZM13.4925 2.1485C13.5134 1.93993 13.4904 1.72929 13.4249 1.53016C13.3595 1.33103 13.253 1.14783 13.1124 0.992387C12.9717 0.83694 12.8001 0.712692 12.6085 0.627657C12.4169 0.542622 12.2096 0.498688 12 0.498688C11.7904 0.498688 11.5831 0.542622 11.3915 0.627657C11.1999 0.712692 11.0283 0.83694 10.8876 0.992387C10.747 1.14783 10.6405 1.33103 10.5751 1.53016C10.5096 1.72929 10.4866 1.93993 10.5075 2.1485C8.81208 2.49335 7.28793 3.41354 6.19315 4.75325C5.09836 6.09296 4.50022 7.76986 4.5 9.5C4.5 11.147 3.75 18.5 1.5 20H22.5C20.25 18.5 19.5 11.147 19.5 9.5C19.5 5.87 16.92 2.84 13.4925 2.1485V2.1485Z" fill="#FE385C"/>
</svg>
