<svg width="34" height="34" viewBox="0 0 34 34" fill="none" xmlns="http://www.w3.org/2000/svg">
<path d="M6.375 29.75C6.375 29.75 4.25 29.75 4.25 27.625C4.25 25.5 6.375 19.125 17 19.125C27.625 19.125 29.75 25.5 29.75 27.625C29.75 29.75 27.625 29.75 27.625 29.75H6.375ZM17 17C18.6908 17 20.3123 16.3284 21.5078 15.1328C22.7034 13.9373 23.375 12.3158 23.375 10.625C23.375 8.93425 22.7034 7.31274 21.5078 6.11719C20.3123 4.92165 18.6908 4.25 17 4.25C15.3092 4.25 13.6877 4.92165 12.4922 6.11719C11.2966 7.31274 10.625 8.93425 10.625 10.625C10.625 12.3158 11.2966 13.9373 12.4922 15.1328C13.6877 16.3284 15.3092 17 17 17Z" fill="#FE385C"/>
</svg>
