<svg width="35" height="34" viewBox="0 0 35 34" fill="none" xmlns="http://www.w3.org/2000/svg">
<path d="M23.575 12.75C23.575 14.4408 22.9033 16.0623 21.7078 17.2578C20.5122 18.4534 18.8907 19.125 17.2 19.125C15.5092 19.125 13.8877 18.4534 12.6921 17.2578C11.4966 16.0623 10.825 14.4408 10.825 12.75C10.825 11.0592 11.4966 9.43774 12.6921 8.24219C13.8877 7.04665 15.5092 6.375 17.2 6.375C18.8907 6.375 20.5122 7.04665 21.7078 8.24219C22.9033 9.43774 23.575 11.0592 23.575 12.75Z" fill="#FE385C"/>
<path fill-rule="evenodd" clip-rule="evenodd" d="M0.199951 17C0.199951 12.4913 1.99102 8.1673 5.17914 4.97919C8.36725 1.79107 12.6913 0 17.2 0C21.7086 0 26.0326 1.79107 29.2208 4.97919C32.4089 8.1673 34.2 12.4913 34.2 17C34.2 21.5087 32.4089 25.8327 29.2208 29.0208C26.0326 32.2089 21.7086 34 17.2 34C12.6913 34 8.36725 32.2089 5.17914 29.0208C1.99102 25.8327 0.199951 21.5087 0.199951 17ZM17.2 2.125C14.3987 2.12515 11.6545 2.91627 9.28306 4.40731C6.91163 5.89835 5.00943 8.0287 3.79537 10.5532C2.58132 13.0776 2.10477 15.8936 2.42057 18.677C2.73637 21.4603 3.83169 24.0979 5.58045 26.2862C7.0892 23.8552 10.4106 21.25 17.2 21.25C23.9893 21.25 27.3086 23.8531 28.8195 26.2862C30.5682 24.0979 31.6635 21.4603 31.9793 18.677C32.2951 15.8936 31.8186 13.0776 30.6045 10.5532C29.3905 8.0287 27.4883 5.89835 25.1168 4.40731C22.7454 2.91627 20.0012 2.12515 17.2 2.125Z" fill="#FE385C"/>
</svg>
