<svg width="35" height="34" viewBox="0 0 35 34" fill="none" xmlns="http://www.w3.org/2000/svg">
<path d="M9.41023 0.31025C9.50908 0.211646 9.6264 0.133493 9.75547 0.0802579C9.88455 0.027023 10.0229 -0.000249337 10.1625 2.57435e-08H25.0375C25.3193 2.57435e-08 25.5895 0.111942 25.7888 0.311199C25.988 0.510457 26.1 0.780707 26.1 1.0625C26.1 2.5075 25.3732 3.55725 24.7272 4.20537C24.4595 4.471 24.196 4.68137 23.975 4.83862V14.2545L24.1407 14.3565C24.5721 14.6264 25.1522 15.0238 25.7366 15.5359C26.865 16.5219 28.225 18.1199 28.225 20.1875C28.225 20.4693 28.113 20.7395 27.9138 20.9388C27.7145 21.1381 27.4443 21.25 27.1625 21.25H18.6625V30.8125C18.6625 31.399 18.1865 34 17.6 34C17.0135 34 16.5375 31.399 16.5375 30.8125V21.25H8.03748C7.75568 21.25 7.48543 21.1381 7.28617 20.9388C7.08692 20.7395 6.97498 20.4693 6.97498 20.1875C6.97498 18.1199 8.33498 16.5219 9.46123 15.5359C10.011 15.0585 10.6011 14.6298 11.225 14.2545V4.83862C10.957 4.64889 10.7054 4.43707 10.4727 4.20537C9.82673 3.55725 9.09998 2.50537 9.09998 1.0625C9.09973 0.922877 9.127 0.784574 9.18023 0.655498C9.23347 0.526421 9.31162 0.409103 9.41023 0.31025Z" fill="#FE385C"/>
</svg>
