<svg width="34" height="34" viewBox="0 0 34 34" fill="none" xmlns="http://www.w3.org/2000/svg">
<g clip-path="url(#clip0_913_3278)">
<path d="M26.8137 25.0822C26.9117 26.607 25.6799 28.6442 25.2767 30.8381C25.215 31.1675 24.4561 30.9108 24.4137 31.2696C24.3713 31.6273 25.0059 32.7813 25.0443 33.1067C25.0827 33.4361 24.0843 33.3199 24.0843 33.3199L23.9297 33.5695H23.5073L23.2364 32.7621C23.2364 32.7621 21.2366 32.5317 21.1588 32.8773C21.081 33.2229 20.8708 32.9541 19.8128 33.5695C18.7548 34.1849 14.9077 33.9929 13.4263 33.8808C12.726 33.8232 11.6478 33.3159 10.9637 33.1855C10.2027 33.043 9.86522 33.2815 9.73385 33.3027C9.48324 33.3411 8.90118 32.9875 8.77183 32.6853C8.64249 32.3852 7.7118 30.3551 8.23322 30.1479C8.75364 29.9407 10.5797 29.2425 10.6565 28.9929C10.7343 28.7413 10.1209 27.2113 9.66816 27.1032C9.21444 26.993 8.47272 26.2675 8.17562 26.0694C7.88763 25.8774 8.22413 25.4439 8.15642 25.0104C8.08468 24.5537 7.76535 24.1818 8.08064 24.0676C8.69301 23.8412 10.035 23.3481 12.0621 22.6225C12.7684 22.3709 14.0053 22.5862 14.6197 22.3537C15.2654 22.1112 15.2735 21.4241 15.3897 21.1997C15.7737 20.4499 15.3705 20.0437 15.6009 19.1585C15.9071 17.9863 16.9975 17.0616 17.0844 15.9753C17.142 15.2639 15.5615 12.7538 14.8501 12.485C14.5187 12.3597 13.299 12.4102 12.2349 12.3496C11.0172 12.2799 9.9501 12.104 9.73486 12.0697C9.32964 12.005 7.18531 10.563 7.18531 10.563C7.18531 10.563 7.26312 11.235 6.99331 11.4472C6.72351 11.6584 6.81142 10.6064 6.61942 10.8651C6.42742 11.1218 6.42641 11.1016 6.291 11.3047C6.1566 11.5058 6.48401 12.3425 6.33951 12.4779C6.195 12.6113 6.13538 12.1647 6.13538 12.1647C6.13538 12.1647 6.05151 12.5446 5.9353 12.3809C5.8201 12.2172 5.7342 11.433 5.7342 11.433C5.7342 11.433 5.5412 12.1303 5.4361 11.9373C5.33 11.7473 5.56242 11.2451 5.56242 11.2451C5.56242 11.2451 6.46582 9.56459 6.96502 9.55347C7.46624 9.54135 9.71667 10.8692 11.4477 10.9076C13.1797 10.947 13.1019 10.562 15.0825 10.4842C14.7177 10.1578 14.7167 9.80813 14.7359 9.44535C14.7561 9.08257 14.1407 8.76527 14.1215 7.59609C14.1023 6.42692 15.7849 6.05101 16.3861 6.05606C16.9874 6.06111 17.4209 6.34406 17.5836 6.65934C17.815 7.09993 18.1414 7.15753 18.4112 7.21614C18.6082 7.25757 18.2576 7.60014 18.2576 7.60014L18.7568 8.34994C18.7568 8.34994 18.9013 8.62885 18.5739 8.77436C18.2475 8.91786 17.716 9.02093 17.5967 9.0563C17.4765 9.09167 17.4098 9.42817 17.6291 9.67777C17.7715 9.84147 18.391 10.6873 18.6992 10.2932C18.7992 10.1658 18.9882 9.72122 19.1943 9.15533C19.3368 8.77133 19.6501 8.38127 19.7845 7.94573C20.0614 7.06153 20.1139 6.15509 20.0846 5.86002C20.0412 5.45783 19.4591 3.44892 18.775 2.42627C18.5436 2.08067 17.4906 2.06349 17.4037 2.06753C17.1794 2.07663 16.5225 2.13322 16.4952 1.9109C16.468 1.68556 17.3411 1.73507 17.4512 1.66636C17.5613 1.59764 17.1602 1.09743 17.1602 1.09743C17.1602 1.09743 16.6741 1.18434 16.6236 1.0459C16.5741 0.908465 16.9985 0.792255 16.9985 0.792255C16.9985 0.792255 16.4579 0.253647 16.5064 0.0323428C16.5549 -0.189972 17.2996 0.803371 17.6028 0.87916C17.9969 0.97617 18.8033 1.03377 19.2267 1.53297C20.3686 2.88201 21.4549 5.16781 21.4973 5.62053C21.5307 5.99038 21.3912 7.14843 21.2558 8.44796C21.1164 9.80408 20.5454 10.6812 20.5636 11.3138C20.5717 11.6038 20.7738 11.815 21.0062 12.2374C21.3326 12.8336 20.6596 13.1802 20.603 16.0289C20.5788 17.2617 20.9122 19.1736 20.9122 19.1736C20.9122 19.1736 21.565 18.1823 22.1996 18.2005C22.8342 18.2207 22.9878 17.8751 23.9691 17.2203C24.9513 16.5655 24.6613 15.6499 24.9311 15.1235C25.1999 14.597 25.8739 13.0832 26.3923 13.3914C26.9127 13.6986 28.3739 15.5085 28.5659 17.5851C28.7579 19.6637 27.7413 19.5647 27.8363 20.7096C27.9303 21.8556 26.7187 23.5553 26.8137 25.0822Z" fill="#FE385C"/>
</g>
<defs>
<clipPath id="clip0_913_3278">
<rect width="34" height="34" fill="white"/>
</clipPath>
</defs>
</svg>
