<svg width="20" height="20" viewBox="0 0 20 20" fill="none" xmlns="http://www.w3.org/2000/svg">
<g clip-path="url(#clip0_539_3736)">
<path d="M15.7727 14.7542C15.8304 15.6512 15.1058 16.8496 14.8686 18.14C14.8324 18.3338 14.386 18.1828 14.361 18.3939C14.336 18.6043 14.7093 19.2831 14.7319 19.4745C14.7545 19.6683 14.1672 19.6 14.1672 19.6L14.0763 19.7468H13.8278L13.6685 19.2718C13.6685 19.2718 12.4921 19.1363 12.4463 19.3396C12.4006 19.5429 12.2769 19.3848 11.6546 19.7468C11.0322 20.1088 8.76924 19.9958 7.89782 19.9299C7.48588 19.896 6.85163 19.5976 6.4492 19.5209C6.0016 19.4371 5.80306 19.5774 5.72579 19.5898C5.57837 19.6124 5.23598 19.4044 5.1599 19.2267C5.08381 19.0501 4.53635 17.8559 4.84307 17.7341C5.1492 17.6122 6.22332 17.2014 6.2685 17.0546C6.31427 16.9066 5.95345 16.0067 5.68715 15.9431C5.42025 15.8783 4.98395 15.4515 4.80919 15.335C4.63978 15.222 4.83772 14.967 4.79789 14.712C4.75569 14.4433 4.56785 14.2246 4.75331 14.1574C5.11353 14.0243 5.90293 13.7342 7.09534 13.3074C7.51084 13.1594 8.23842 13.286 8.59983 13.1493C8.97967 13.0066 8.98442 12.6024 9.05278 12.4704C9.27866 12.0294 9.04149 11.7904 9.17702 11.2697C9.35713 10.5802 9.99851 10.0363 10.0496 9.39725C10.0835 8.97878 9.15383 7.50223 8.73536 7.34411C8.54039 7.2704 7.82292 7.30012 7.19699 7.26446C6.48071 7.22344 5.853 7.12001 5.72638 7.0998C5.48802 7.06176 4.22665 6.21352 4.22665 6.21352C4.22665 6.21352 4.27242 6.60881 4.11371 6.73364C3.955 6.85787 4.00671 6.23908 3.89377 6.39125C3.78083 6.54223 3.78024 6.53034 3.70058 6.64982C3.62153 6.76811 3.81412 7.2603 3.72912 7.33995C3.64411 7.41841 3.60904 7.15568 3.60904 7.15568C3.60904 7.15568 3.55971 7.37918 3.49135 7.28289C3.42358 7.18659 3.37306 6.72532 3.37306 6.72532C3.37306 6.72532 3.25952 7.13547 3.1977 7.02193C3.13529 6.91018 3.27201 6.61475 3.27201 6.61475C3.27201 6.61475 3.80342 5.62623 4.09707 5.61969C4.3919 5.61255 5.71568 6.39363 6.73393 6.41621C7.75278 6.4394 7.707 6.21292 8.87208 6.16715C8.65749 5.97515 8.65689 5.76948 8.66819 5.55608C8.68008 5.34268 8.31807 5.15604 8.30678 4.46829C8.29548 3.78054 9.2852 3.55941 9.63888 3.56238C9.99257 3.56536 10.2476 3.7318 10.3433 3.91726C10.4794 4.17642 10.6714 4.21031 10.8301 4.24478C10.946 4.26915 10.7398 4.47066 10.7398 4.47066L11.0334 4.91173C11.0334 4.91173 11.1184 5.07579 10.9258 5.16139C10.7338 5.24579 10.4211 5.30642 10.351 5.32723C10.2803 5.34803 10.241 5.54598 10.37 5.6928C10.4538 5.7891 10.8182 6.28663 10.9995 6.05481C11.0584 5.97991 11.1695 5.71836 11.2908 5.38548C11.3746 5.1596 11.5589 4.93015 11.6379 4.67396C11.8008 4.15384 11.8317 3.62064 11.8145 3.44707C11.7889 3.21048 11.4465 2.02877 11.0441 1.42721C10.908 1.22392 10.2886 1.21381 10.2375 1.21619C10.1055 1.22154 9.71913 1.25483 9.70308 1.12406C9.68703 0.991499 10.2006 1.02063 10.2654 0.980205C10.3302 0.939784 10.0942 0.645544 10.0942 0.645544C10.0942 0.645544 9.8083 0.696665 9.77857 0.615228C9.74945 0.534387 9.9991 0.466028 9.9991 0.466028C9.9991 0.466028 9.68109 0.1492 9.70962 0.0190208C9.73815 -0.111753 10.1762 0.472567 10.3546 0.517148C10.5864 0.574213 11.0607 0.608095 11.3098 0.901741C11.9815 1.6953 12.6205 3.03988 12.6455 3.30619C12.6651 3.52375 12.5831 4.20496 12.5034 4.96939C12.4214 5.7671 12.0855 6.28306 12.0962 6.65517C12.101 6.82577 12.2199 6.95001 12.3566 7.19848C12.5486 7.54919 12.1527 7.75308 12.1194 9.42876C12.1052 10.154 12.3013 11.2786 12.3013 11.2786C12.3013 11.2786 12.6853 10.6955 13.0586 10.7062C13.4319 10.7181 13.5223 10.5148 14.0994 10.1296C14.6772 9.7444 14.5066 9.20585 14.6653 8.89615C14.8235 8.58646 15.2199 7.69601 15.5249 7.87731C15.831 8.05801 16.6905 9.12263 16.8035 10.3442C16.9164 11.5669 16.3184 11.5086 16.3743 12.1821C16.4296 12.8562 15.7169 13.856 15.7727 14.7542Z" fill="black"/>
</g>
<defs>
<clipPath id="clip0_539_3736">
<rect width="20" height="20" fill="white"/>
</clipPath>
</defs>
</svg>
