<svg width="21" height="21" viewBox="0 0 21 21" fill="none" xmlns="http://www.w3.org/2000/svg">
<g clip-path="url(#clip0_3577_12501)">
<path d="M16.2728 15.2542C16.3304 16.1512 15.6058 17.3496 15.3686 18.6401C15.3324 18.8338 14.886 18.6829 14.861 18.8939C14.836 19.1043 15.2093 19.7831 15.2319 19.9745C15.2545 20.1683 14.6672 20.1 14.6672 20.1L14.5763 20.2468H14.3278L14.1685 19.7718C14.1685 19.7718 12.9921 19.6363 12.9464 19.8396C12.9006 20.0429 12.777 19.8848 12.1546 20.2468C11.5322 20.6088 9.26926 20.4959 8.39783 20.4299C7.98589 20.396 7.35164 20.0976 6.94922 20.0209C6.50162 19.9371 6.30308 20.0774 6.2258 20.0899C6.07839 20.1124 5.736 19.9044 5.65991 19.7267C5.58383 19.5501 5.03636 18.3559 5.34308 18.2341C5.64921 18.1122 6.72334 17.7015 6.76851 17.5546C6.81428 17.4066 6.45347 16.5067 6.18717 16.4431C5.92027 16.3783 5.48396 15.9515 5.3092 15.835C5.13979 15.722 5.33773 15.467 5.29791 15.212C5.2557 14.9433 5.06787 14.7246 5.25333 14.6574C5.61355 14.5243 6.40294 14.2342 7.59536 13.8074C8.01086 13.6594 8.73844 13.786 9.09985 13.6493C9.47968 13.5066 9.48444 13.1024 9.5528 12.9704C9.77868 12.5294 9.5415 12.2904 9.67703 11.7697C9.85714 11.0802 10.4985 10.5363 10.5496 9.89727C10.5835 9.47879 9.65385 8.00224 9.23537 7.84412C9.0404 7.77042 8.32293 7.80014 7.697 7.76447C6.98072 7.72346 6.35301 7.62003 6.2264 7.59982C5.98803 7.56177 4.72667 6.71353 4.72667 6.71353C4.72667 6.71353 4.77244 7.10882 4.61373 7.23365C4.45501 7.35789 4.50673 6.73909 4.39379 6.89126C4.28085 7.04225 4.28025 7.03036 4.2006 7.14984C4.12154 7.26813 4.31414 7.76031 4.22913 7.83996C4.14413 7.91843 4.10906 7.65569 4.10906 7.65569C4.10906 7.65569 4.05972 7.8792 3.99136 7.7829C3.9236 7.6866 3.87307 7.22533 3.87307 7.22533C3.87307 7.22533 3.75954 7.63548 3.69772 7.52195C3.6353 7.41019 3.77202 7.11477 3.77202 7.11477C3.77202 7.11477 4.30344 6.12624 4.59708 6.1197C4.89192 6.11257 6.2157 6.89364 7.23395 6.91623C8.25279 6.93941 8.20702 6.71294 9.37209 6.66716C9.1575 6.47517 9.15691 6.2695 9.1682 6.0561C9.18009 5.8427 8.81809 5.65605 8.80679 4.9683C8.7955 4.28055 9.78522 4.05943 10.1389 4.0624C10.4926 4.06537 10.7476 4.23181 10.8433 4.41727C10.9794 4.67644 11.1714 4.71032 11.3301 4.7448C11.446 4.76917 11.2398 4.97068 11.2398 4.97068L11.5334 5.41174C11.5334 5.41174 11.6184 5.5758 11.4258 5.6614C11.2338 5.74581 10.9212 5.80644 10.851 5.82724C10.7803 5.84805 10.7411 6.04599 10.87 6.19281C10.9539 6.28911 11.3182 6.78664 11.4995 6.55482C11.5584 6.47992 11.6695 6.21837 11.7908 5.8855C11.8746 5.65962 12.0589 5.43017 12.1379 5.17397C12.3008 4.65385 12.3317 4.12065 12.3145 3.94708C12.2889 3.7105 11.9465 2.52878 11.5441 1.92723C11.408 1.72393 10.7886 1.71383 10.7375 1.7162C10.6055 1.72155 10.2191 1.75484 10.2031 1.62407C10.187 1.49151 10.7006 1.52064 10.7654 1.48022C10.8302 1.4398 10.5942 1.14556 10.5942 1.14556C10.5942 1.14556 10.3083 1.19668 10.2786 1.11524C10.2495 1.0344 10.4991 0.966041 10.4991 0.966041C10.4991 0.966041 10.1811 0.649213 10.2096 0.519034C10.2382 0.388261 10.6763 0.97258 10.8546 1.01716C11.0864 1.07423 11.5608 1.10811 11.8098 1.40175C12.4815 2.19531 13.1205 3.5399 13.1455 3.8062C13.1651 4.02376 13.0831 4.70497 13.0034 5.4694C12.9214 6.26712 12.5856 6.78308 12.5962 7.15519C12.601 7.32579 12.7199 7.45002 12.8566 7.69849C13.0486 8.0492 12.6527 8.25309 12.6194 9.92877C12.6052 10.654 12.8013 11.7786 12.8013 11.7786C12.8013 11.7786 13.1853 11.1955 13.5586 11.2062C13.9319 11.2181 14.0223 11.0148 14.5995 10.6296C15.1772 10.2444 15.0066 9.70586 15.1654 9.39617C15.3235 9.08647 15.7199 8.19602 16.0249 8.37732C16.331 8.55803 17.1906 9.62264 17.3035 10.8442C17.4164 12.0669 16.8184 12.0087 16.8743 12.6821C16.9296 13.3562 16.2169 14.356 16.2728 15.2542Z" fill="black"/>
</g>
<defs>
<clipPath id="clip0_3577_12501">
<rect width="20" height="20" fill="white" transform="translate(0.5 0.5)"/>
</clipPath>
</defs>
</svg>
