<svg width="24" height="24" viewBox="0 0 24 24" fill="none" xmlns="http://www.w3.org/2000/svg">
<path d="M11.9473 15.5264C10.7894 15.5264 9.84204 16.4737 9.84204 17.6316V21.8948C9.84204 23.0527 10.7894 24.0001 11.9473 24.0001C13.1052 24.0001 14.0526 23.0527 14.0526 21.8948V17.6316C14.0526 16.4737 13.1052 15.5264 11.9473 15.5264Z" fill="#FE385C"/>
<path d="M19.5788 2.63158H15.5262C15.0525 1.10526 13.6315 0 11.9473 0C10.263 0 8.84199 1.10526 8.36831 2.63158H4.36831C3.78936 2.63158 3.31567 3.10526 3.31567 3.68421C3.31567 4.26316 3.78936 4.73684 4.36831 4.73684H8.42094C8.68409 5.63158 9.26304 6.36842 10.0525 6.8421C7.21041 7.68421 5.10515 10.3158 5.10515 13.4211V18.9474C5.10515 19.8947 5.89462 20.6842 6.84199 20.6842H8.26304V17.6842C8.26304 15.6315 9.94725 13.9474 11.9999 13.9474C14.0525 13.9474 15.7367 15.6316 15.7367 17.6842V20.6842H17.1578C18.1051 20.6842 18.8946 19.8947 18.8946 18.9474V13.4737C18.8946 10.3684 16.7894 7.68421 13.9472 6.89474C14.7367 6.42105 15.3156 5.68421 15.5788 4.78947H19.6314C20.2104 4.78947 20.6841 4.31579 20.6841 3.73684C20.6315 3.10526 20.1578 2.63158 19.5788 2.63158ZM11.9473 5.8421C10.7894 5.8421 9.84199 4.89474 9.84199 3.73684C9.84199 2.57895 10.7894 1.63158 11.9473 1.63158C13.1051 1.63158 14.0525 2.57895 14.0525 3.73684C14.1051 4.89474 13.1578 5.8421 11.9473 5.8421Z" fill="#FE385C"/>
</svg>
