<svg width="35" height="34" viewBox="0 0 35 34" fill="none" xmlns="http://www.w3.org/2000/svg">
<path d="M3.23267 5.66738C3.23267 2.53725 9.57579 0 17.4 0C25.2243 0 31.5674 2.53725 31.5674 5.66738V8.5C31.5674 11.6301 25.2243 14.1674 17.4 14.1674C9.57579 14.1674 3.23267 11.6301 3.23267 8.5V5.66738Z" fill="#FE385C"/>
<path d="M3.23267 13.4597V19.8347C3.23267 22.9606 9.57579 25.5 17.4 25.5C25.2243 25.5 31.5674 22.9627 31.5674 19.8326V13.4597C30.6104 14.1491 29.5693 14.7133 28.4692 15.1385C25.4963 16.3285 21.5799 17 17.4 17C13.2223 17 9.30592 16.3264 6.33304 15.1385C5.23293 14.7133 4.19173 14.1492 3.23479 13.4597H3.23267Z" fill="#FE385C"/>
<path d="M31.5674 24.7945C30.6103 25.4831 29.5691 26.0466 28.4692 26.4711C25.4942 27.6611 21.5799 28.3326 17.3979 28.3326C13.2202 28.3326 9.30379 27.6611 6.33092 26.4711C5.23083 26.0459 4.18963 25.4817 3.23267 24.7924V28.3326C3.23267 31.4627 9.57579 34 17.4 34C25.2243 34 31.5674 31.4627 31.5674 28.3326V24.7945Z" fill="#FE385C"/>
</svg>
