<svg width="195" height="114" viewBox="0 0 195 114" fill="none" xmlns="http://www.w3.org/2000/svg">
<path d="M174.846 107.845L169.42 90.2129H24.8007L19.3745 107.845C18.4359 110.891 20.6432 114 23.7455 114C24.6584 114 25.5506 113.719 26.3077 113.193C27.0649 112.668 27.6526 111.921 27.9957 111.049L31.9997 100.866H162.221L166.225 111.049C166.568 111.921 167.155 112.668 167.913 113.194C168.67 113.719 169.562 114 170.475 114C173.577 114 175.785 110.891 174.846 107.845H174.846Z" fill="#F9AA4B"/>
<path d="M27.9614 90.2129H24.8007L23.0486 95.9047H171.172L169.42 90.2129H27.9614Z" fill="#C1762B"/>
<path d="M16.3843 28.0456L14.4568 73.8124H179.764L177.835 28.0456C177.175 12.3633 164.645 0 149.414 0H44.8059C29.5738 0 17.046 12.3633 16.3843 28.0456Z" fill="#2176C7"/>
<path d="M177.835 28.0456C177.174 12.3633 164.645 0 149.414 0H136.768C151.999 0 164.528 12.3633 165.188 28.0456L167.117 73.8124H179.763L177.835 28.0456Z" fill="#165E9E"/>
<path d="M68.4193 53.6378C57.6035 50.8603 46.788 50.8603 35.9726 53.6378C32.0762 54.6389 29.3501 58.2624 29.3501 62.401V68.8874H75.0403V62.401C75.0403 58.2624 72.3153 54.6373 68.4193 53.6378ZM114.108 53.6378C103.292 50.8603 92.4771 50.8603 81.6616 53.6378C77.7652 54.6389 75.0403 58.2624 75.0403 62.401V68.8874H120.731V62.401C120.731 58.2624 118.004 54.6373 114.108 53.6378Z" fill="#7DCDF9"/>
<path d="M159.798 53.6378C148.983 50.8603 138.167 50.8603 127.352 53.6378C123.455 54.6389 120.731 58.2624 120.731 62.401V68.8874H166.419V62.401C166.419 58.2624 163.695 54.6373 159.798 53.6378H159.798Z" fill="#7DCDF9"/>
<path d="M174.625 34.408L168.049 57.6483C166.164 64.3062 160.242 68.8853 153.511 68.8853H40.7077C33.9773 68.8853 28.0546 64.3062 26.1698 57.6483L19.5937 34.408C18.1129 29.1774 12.849 26.1235 7.74268 27.5328C2.63338 28.9422 -0.445096 34.3004 0.810441 39.5944L7.76192 68.8853L10.1991 79.1667C11.7926 85.8852 17.6357 90.6128 24.3484 90.6128H169.873C176.585 90.6128 182.426 85.8883 184.021 79.1698L186.463 68.8853L193.41 39.5944C194.665 34.3004 191.585 28.9422 186.477 27.5328C181.369 26.1235 176.106 29.1774 174.625 34.408H174.625Z" fill="#56A6E8"/>
<path d="M186.478 27.5324H186.476C183.607 26.7413 180.688 27.3579 178.418 28.9799C181.632 31.2791 183.299 35.4555 182.319 39.5937L175.372 68.8846L172.93 79.1694C171.335 85.888 165.492 90.6125 158.781 90.6125H169.874C176.585 90.6125 182.427 85.888 184.021 79.1694L186.463 68.8849L193.41 39.594C194.666 34.3 191.586 28.9418 186.478 27.5324Z" fill="#2176C7"/>
<path d="M56.0639 20.8326H55.0068V19.744C55.0068 18.9707 54.7087 18.229 54.1781 17.6822C53.6474 17.1353 52.9278 16.8281 52.1773 16.8281C51.4269 16.8281 50.7072 17.1353 50.1766 17.6822C49.6459 18.229 49.3478 18.9707 49.3478 19.744V20.8326H48.29C47.9184 20.8326 47.5505 20.908 47.2072 21.0545C46.8639 21.2011 46.552 21.4159 46.2892 21.6866C46.0265 21.9574 45.8181 22.2788 45.6759 22.6326C45.5337 22.9864 45.4605 23.3655 45.4605 23.7485C45.4605 24.1314 45.5337 24.5105 45.6759 24.8643C45.8181 25.2181 46.0265 25.5395 46.2892 25.8103C46.552 26.0811 46.8639 26.2958 47.2072 26.4424C47.5505 26.5889 47.9184 26.6643 48.29 26.6643H49.3478V27.7549C49.3478 28.5282 49.6459 29.2699 50.1766 29.8167C50.7072 30.3635 51.4269 30.6707 52.1773 30.6707C52.9278 30.6707 53.6474 30.3635 54.1781 29.8167C54.7087 29.2699 55.0068 28.5282 55.0068 27.7549V26.6643H56.0635C56.4351 26.6643 56.803 26.5889 57.1463 26.4424C57.4896 26.2958 57.8015 26.0811 58.0643 25.8103C58.327 25.5395 58.5354 25.2181 58.6776 24.8643C58.8198 24.5105 58.893 24.1314 58.893 23.7485C58.893 23.3655 58.8198 22.9864 58.6776 22.6326C58.5354 22.2788 58.327 21.9574 58.0643 21.6866C57.8015 21.4159 57.4896 21.2011 57.1463 21.0545C56.803 20.908 56.4355 20.8326 56.0639 20.8326ZM86.0195 20.8326H84.9613V19.744C84.9613 18.9707 84.6631 18.229 84.1325 17.6822C83.6019 17.1353 82.8822 16.8281 82.1318 16.8281C81.3813 16.8281 80.6617 17.1353 80.131 17.6822C79.6004 18.229 79.3023 18.9707 79.3023 19.744V20.8326H78.2459C76.6833 20.8326 75.4165 22.1389 75.4165 23.7485C75.4165 24.5218 75.7146 25.2635 76.2452 25.8103C76.7758 26.3571 77.4955 26.6643 78.2459 26.6643H79.3023V27.7549C79.3023 28.5282 79.6004 29.2699 80.131 29.8167C80.6617 30.3635 81.3813 30.6707 82.1318 30.6707C82.8822 30.6707 83.6019 30.3635 84.1325 29.8167C84.6631 29.2699 84.9613 28.5282 84.9613 27.7549V26.6643H86.0195C86.3911 26.6643 86.759 26.5889 87.1023 26.4424C87.4456 26.2958 87.7575 26.0811 88.0202 25.8103C88.283 25.5395 88.4914 25.2181 88.6336 24.8643C88.7758 24.5105 88.849 24.1314 88.849 23.7485C88.849 23.3655 88.7758 22.9864 88.6336 22.6326C88.4914 22.2788 88.283 21.9574 88.0202 21.6866C87.7575 21.4159 87.4456 21.2011 87.1023 21.0545C86.759 20.908 86.3911 20.8326 86.0195 20.8326ZM115.975 20.8326H114.917V19.744C114.917 18.9707 114.619 18.229 114.088 17.6822C113.557 17.1353 112.838 16.8281 112.087 16.8281C111.337 16.8281 110.617 17.1353 110.087 17.6822C109.556 18.229 109.258 18.9707 109.258 19.744V20.8326H108.202C107.83 20.8326 107.462 20.908 107.119 21.0545C106.775 21.2011 106.464 21.4159 106.201 21.6866C105.938 21.9574 105.73 22.2788 105.587 22.6326C105.445 22.9864 105.372 23.3655 105.372 23.7485C105.372 24.1314 105.445 24.5105 105.587 24.8643C105.73 25.2181 105.938 25.5395 106.201 25.8103C106.464 26.0811 106.775 26.2958 107.119 26.4424C107.462 26.5889 107.83 26.6643 108.202 26.6643H109.258V27.7549C109.258 28.5282 109.556 29.2699 110.087 29.8167C110.617 30.3635 111.337 30.6707 112.087 30.6707C112.838 30.6707 113.557 30.3635 114.088 29.8167C114.619 29.2699 114.917 28.5282 114.917 27.7549V26.6643H115.975C116.347 26.6643 116.715 26.5889 117.058 26.4424C117.401 26.2958 117.713 26.0811 117.976 25.8103C118.239 25.5395 118.447 25.2181 118.589 24.8643C118.731 24.5105 118.805 24.1314 118.805 23.7485C118.805 23.3655 118.731 22.9864 118.589 22.6326C118.447 22.2788 118.239 21.9574 117.976 21.6866C117.713 21.4159 117.401 21.2011 117.058 21.0545C116.715 20.908 116.347 20.8326 115.975 20.8326ZM145.931 20.8326H144.873V19.744C144.873 18.9707 144.575 18.229 144.044 17.6822C143.513 17.1353 142.794 16.8281 142.043 16.8281C141.293 16.8281 140.573 17.1353 140.043 17.6822C139.512 18.229 139.214 18.9707 139.214 19.744V20.8326H138.157C137.785 20.8326 137.417 20.908 137.074 21.0545C136.731 21.2011 136.419 21.4159 136.156 21.6866C135.893 21.9574 135.685 22.2788 135.543 22.6326C135.4 22.9864 135.327 23.3655 135.327 23.7485C135.327 24.1314 135.4 24.5105 135.543 24.8643C135.685 25.2181 135.893 25.5395 136.156 25.8103C136.419 26.0811 136.731 26.2958 137.074 26.4424C137.417 26.5889 137.785 26.6643 138.157 26.6643H139.213V27.7549C139.213 28.5282 139.511 29.2699 140.042 29.8167C140.572 30.3635 141.292 30.6707 142.043 30.6707C142.793 30.6707 143.513 30.3635 144.043 29.8167C144.574 29.2699 144.872 28.5282 144.872 27.7549V26.6643H145.93C146.302 26.6643 146.67 26.5889 147.013 26.4424C147.356 26.2958 147.668 26.0811 147.931 25.8103C148.194 25.5395 148.402 25.2181 148.544 24.8643C148.687 24.5105 148.76 24.1314 148.76 23.7485C148.76 23.3655 148.687 22.9864 148.544 22.6326C148.402 22.2788 148.194 21.9574 147.931 21.6866C147.668 21.4159 147.356 21.2011 147.013 21.0545C146.67 20.908 146.302 20.8326 145.931 20.8326Z" fill="#165E9E"/>
</svg>
