<svg width="63" height="62" viewBox="0 0 63 62" fill="none" xmlns="http://www.w3.org/2000/svg">
<path d="M60.485 29.9634C60.2491 28.5106 59.5518 27.1722 58.4963 26.1463C57.4408 25.1205 56.083 24.4616 54.624 24.2672C54.3439 24.2398 54.0626 24.2268 53.7812 24.2284V21.3125C53.7766 17.46 52.2442 13.7666 49.52 11.0425C46.7959 8.31831 43.1025 6.78586 39.25 6.78125H23.75C19.8975 6.78586 16.2041 8.31831 13.4799 11.0425C10.7558 13.7666 9.22334 17.46 9.21872 21.3125V24.2284C8.93731 24.2268 8.65599 24.2398 8.37591 24.2672C6.91689 24.4616 5.55919 25.1205 4.50367 26.1463C3.44815 27.1722 2.75086 28.5106 2.51497 29.9634C2.25601 31.5834 2.59741 33.2421 3.47503 34.6281C4.35266 36.0141 5.70613 37.032 7.28122 37.4906V50.375C7.28352 51.1451 7.59045 51.883 8.13498 52.4275C8.67951 52.972 9.41739 53.2789 10.1875 53.2812V59.0938C10.1875 59.3507 10.2895 59.5971 10.4712 59.7788C10.6529 59.9604 10.8993 60.0625 11.1562 60.0625H14.0625C14.2733 60.0619 14.4782 59.9925 14.6461 59.8649C14.8139 59.7372 14.9355 59.5583 14.9925 59.3553L16.7265 53.2812H46.2734L48.0075 59.3553C48.0644 59.5583 48.186 59.7372 48.3539 59.8649C48.5217 59.9925 48.7266 60.0619 48.9375 60.0625H51.8437C52.1007 60.0625 52.3471 59.9604 52.5287 59.7788C52.7104 59.5971 52.8125 59.3507 52.8125 59.0938V53.2812C53.5826 53.2789 54.3204 52.972 54.865 52.4275C55.4095 51.883 55.7164 51.1451 55.7187 50.375V37.4906C57.2938 37.032 58.6473 36.0141 59.5249 34.6281C60.4025 33.2421 60.7439 31.5834 60.485 29.9634ZM11.1562 21.3125C11.1593 17.9734 12.4871 14.7719 14.8482 12.4108C17.2094 10.0497 20.4108 8.72183 23.75 8.71875H39.25C42.5891 8.72183 45.7906 10.0497 48.1517 12.4108C50.5128 14.7719 51.8406 17.9734 51.8437 21.3125V24.5094C50.4436 24.9229 49.215 25.7787 48.3419 26.9487C47.4687 28.1188 46.9979 29.5401 47 31V34.0806C46.6893 33.9678 46.3617 33.9089 46.0312 33.9062H16.9687C16.6382 33.9089 16.3106 33.9678 16 34.0806V31C16.002 29.5401 15.5312 28.1188 14.6581 26.9487C13.7849 25.7787 12.5563 24.9229 11.1562 24.5094V21.3125ZM47 36.8125V41.6562H16V36.8125C16 36.5556 16.102 36.3092 16.2837 36.1275C16.4654 35.9458 16.7118 35.8438 16.9687 35.8438H46.0312C46.2882 35.8438 46.5346 35.9458 46.7162 36.1275C46.8979 36.3092 47 36.5556 47 36.8125ZM13.3359 58.125H12.125V53.2812H14.7115L13.3359 58.125ZM50.875 58.125H49.664L48.2884 53.2812H50.875V58.125ZM54.5853 35.7662C54.3602 35.8066 54.1564 35.9248 54.0094 36.1C53.8625 36.2753 53.7817 36.4966 53.7812 36.7253V50.375C53.7812 50.6319 53.6792 50.8783 53.4975 51.06C53.3158 51.2417 53.0694 51.3438 52.8125 51.3438H10.1875C9.93054 51.3438 9.68414 51.2417 9.50246 51.06C9.32079 50.8783 9.21872 50.6319 9.21872 50.375V36.7253C9.21823 36.4966 9.13747 36.2753 8.99053 36.1C8.84359 35.9248 8.63978 35.8066 8.41466 35.7662C7.26932 35.5743 6.23123 34.9768 5.49 34.0828C4.74876 33.1888 4.35383 32.058 4.37733 30.8969C4.40083 29.7359 4.8412 28.622 5.61801 27.7587C6.39482 26.8955 7.45624 26.3404 8.60841 26.195C8.81067 26.1676 9.01462 26.1547 9.21872 26.1562H9.22841C10.4083 26.1541 11.5471 26.5889 12.4253 27.3769C12.9386 27.8309 13.35 28.3885 13.6322 29.013C13.9144 29.6375 14.061 30.3147 14.0625 31V42.625C14.0625 42.8819 14.1645 43.1283 14.3462 43.31C14.5279 43.4917 14.7743 43.5938 15.0312 43.5938H47.9687C48.2257 43.5938 48.4721 43.4917 48.6537 43.31C48.8354 43.1283 48.9375 42.8819 48.9375 42.625V31C48.9389 30.3147 49.0856 29.6375 49.3678 29.013C49.65 28.3885 50.0613 27.8309 50.5747 27.3769C51.0879 26.916 51.6947 26.5718 52.3536 26.3678C53.0125 26.1638 53.7077 26.1048 54.3915 26.195C55.431 26.3296 56.3992 26.7966 57.1516 27.5263C57.9041 28.2561 58.4005 29.2095 58.5668 30.2444V30.2541C58.767 31.5126 58.4604 32.7992 57.7142 33.8323C56.968 34.8653 55.843 35.5607 54.5853 35.7662Z" fill="white"/>
</svg>
