<svg width="195" height="114" viewBox="0 0 195 114" fill="none" xmlns="http://www.w3.org/2000/svg">
<path d="M174.846 108.06L169.42 91.0469H24.8007L19.3745 108.06C18.4359 111 20.6432 114 23.7455 114C24.6584 113.999 25.5506 113.728 26.3077 113.221C27.0649 112.714 27.6526 111.993 27.9957 111.152L31.9997 101.327H162.221L166.225 111.152C166.568 111.994 167.155 112.714 167.913 113.221C168.67 113.729 169.562 114 170.475 114C173.577 114 175.785 111 174.846 108.06H174.846Z" fill="#F9AA4B"/>
<path d="M27.9614 91.0469H24.8007L23.0486 96.5389H171.172L169.42 91.0469H27.9614Z" fill="#C1762B"/>
<path d="M16.3843 31.0616L14.4568 75.2225H179.764L177.835 31.0616C177.175 15.9295 164.645 4 149.414 4H44.8059C29.5738 4 17.046 15.9295 16.3843 31.0616Z" fill="#FF4F6E"/>
<path d="M177.835 31.0616C177.174 15.9295 164.645 4 149.414 4H136.768C151.999 4 164.528 15.9295 165.188 31.0616L167.117 75.2225H179.763L177.835 31.0616Z" fill="#EC284B"/>
<path d="M68.4193 55.7561C57.6035 53.0761 46.788 53.0761 35.9726 55.7561C32.0762 56.7221 29.3501 60.2184 29.3501 64.2118V70.4706H75.0403V64.2118C75.0403 60.2184 72.3153 56.7206 68.4193 55.7561ZM114.108 55.7561C103.292 53.0761 92.4771 53.0761 81.6616 55.7561C77.7652 56.7221 75.0403 60.2184 75.0403 64.2118V70.4706H120.731V64.2118C120.731 60.2184 118.004 56.7206 114.108 55.7561Z" fill="#FF9BAD"/>
<path d="M159.798 55.7561C148.983 53.0761 138.167 53.0761 127.352 55.7561C123.455 56.7221 120.731 60.2184 120.731 64.2118V70.4706H166.419V64.2118C166.419 60.2184 163.695 56.7206 159.798 55.7561H159.798Z" fill="#FF9BAD"/>
<path d="M174.625 37.2016L168.049 59.6265C166.164 66.0508 160.242 70.4692 153.511 70.4692H40.7077C33.9773 70.4692 28.0546 66.0508 26.1698 59.6265L19.5937 37.2016C18.1129 32.1545 12.849 29.2078 7.74268 30.5676C2.63338 31.9275 -0.445096 37.0977 0.810441 42.206L7.76192 70.4692L10.199 80.3898C11.7926 86.8726 17.6357 91.4343 24.3484 91.4343H169.873C176.585 91.4343 182.426 86.8756 184.021 80.3928L186.463 70.4692L193.41 42.206C194.665 37.0977 191.585 31.9275 186.477 30.5676C181.369 29.2078 176.106 32.1545 174.625 37.2016H174.625Z" fill="#FF7DA4"/>
<path d="M186.478 30.5673H186.476C183.607 29.8039 180.688 30.3988 178.418 31.9639C181.632 34.1825 183.299 38.2123 182.319 42.2053L175.372 70.4684L172.93 80.3924C171.335 86.8753 165.492 91.434 158.781 91.434H169.874C176.585 91.434 182.427 86.8753 184.021 80.3924L186.463 70.4688L193.41 42.2057C194.666 37.0974 191.586 31.9272 186.478 30.5673Z" fill="#FF4F6E"/>
<path d="M56.0639 24.1003H55.0068V23.0499C55.0068 22.3037 54.7087 21.588 54.1781 21.0604C53.6474 20.5328 52.9278 20.2363 52.1773 20.2363C51.4269 20.2363 50.7072 20.5328 50.1766 21.0604C49.6459 21.588 49.3478 22.3037 49.3478 23.0499V24.1003H48.29C47.9184 24.1003 47.5505 24.1731 47.2072 24.3145C46.8639 24.4558 46.552 24.6631 46.2892 24.9244C46.0265 25.1856 45.8181 25.4958 45.6759 25.8371C45.5337 26.1785 45.4605 26.5444 45.4605 26.9138C45.4605 27.2833 45.5337 27.6492 45.6759 27.9905C45.8181 28.3319 46.0265 28.6421 46.2892 28.9033C46.552 29.1646 46.8639 29.3718 47.2072 29.5132C47.5505 29.6546 47.9184 29.7274 48.29 29.7274H49.3478V30.7797C49.3478 31.5259 49.6459 32.2415 50.1766 32.7692C50.7072 33.2968 51.4269 33.5932 52.1773 33.5932C52.9278 33.5932 53.6474 33.2968 54.1781 32.7692C54.7087 32.2415 55.0068 31.5259 55.0068 30.7797V29.7274H56.0635C56.4351 29.7274 56.803 29.6546 57.1463 29.5132C57.4896 29.3718 57.8015 29.1646 58.0643 28.9033C58.327 28.6421 58.5354 28.3319 58.6776 27.9905C58.8198 27.6492 58.893 27.2833 58.893 26.9138C58.893 26.5444 58.8198 26.1785 58.6776 25.8371C58.5354 25.4958 58.327 25.1856 58.0643 24.9244C57.8015 24.6631 57.4896 24.4558 57.1463 24.3145C56.803 24.1731 56.4355 24.1003 56.0639 24.1003ZM86.0195 24.1003H84.9613V23.0499C84.9613 22.3037 84.6631 21.588 84.1325 21.0604C83.6019 20.5328 82.8822 20.2363 82.1318 20.2363C81.3813 20.2363 80.6617 20.5328 80.131 21.0604C79.6004 21.588 79.3023 22.3037 79.3023 23.0499V24.1003H78.2459C76.6833 24.1003 75.4165 25.3608 75.4165 26.9138C75.4165 27.66 75.7146 28.3757 76.2452 28.9033C76.7758 29.431 77.4955 29.7274 78.2459 29.7274H79.3023V30.7797C79.3023 31.5259 79.6004 32.2415 80.131 32.7692C80.6617 33.2968 81.3813 33.5932 82.1318 33.5932C82.8822 33.5932 83.6019 33.2968 84.1325 32.7692C84.6631 32.2415 84.9613 31.5259 84.9613 30.7797V29.7274H86.0195C86.3911 29.7274 86.759 29.6546 87.1023 29.5132C87.4456 29.3718 87.7575 29.1646 88.0202 28.9033C88.283 28.6421 88.4914 28.3319 88.6336 27.9905C88.7758 27.6492 88.849 27.2833 88.849 26.9138C88.849 26.5444 88.7758 26.1785 88.6336 25.8371C88.4914 25.4958 88.283 25.1856 88.0202 24.9244C87.7575 24.6631 87.4456 24.4558 87.1023 24.3145C86.759 24.1731 86.3911 24.1003 86.0195 24.1003ZM115.975 24.1003H114.917V23.0499C114.917 22.3037 114.619 21.588 114.088 21.0604C113.557 20.5328 112.838 20.2363 112.087 20.2363C111.337 20.2363 110.617 20.5328 110.087 21.0604C109.556 21.588 109.258 22.3037 109.258 23.0499V24.1003H108.202C107.83 24.1003 107.462 24.1731 107.119 24.3145C106.775 24.4558 106.464 24.6631 106.201 24.9244C105.938 25.1856 105.73 25.4958 105.587 25.8371C105.445 26.1785 105.372 26.5444 105.372 26.9138C105.372 27.2833 105.445 27.6492 105.587 27.9905C105.73 28.3319 105.938 28.6421 106.201 28.9033C106.464 29.1646 106.775 29.3718 107.119 29.5132C107.462 29.6546 107.83 29.7274 108.202 29.7274H109.258V30.7797C109.258 31.5259 109.556 32.2415 110.087 32.7692C110.617 33.2968 111.337 33.5932 112.087 33.5932C112.838 33.5932 113.557 33.2968 114.088 32.7692C114.619 32.2415 114.917 31.5259 114.917 30.7797V29.7274H115.975C116.347 29.7274 116.715 29.6546 117.058 29.5132C117.401 29.3718 117.713 29.1646 117.976 28.9033C118.239 28.6421 118.447 28.3319 118.589 27.9905C118.731 27.6492 118.805 27.2833 118.805 26.9138C118.805 26.5444 118.731 26.1785 118.589 25.8371C118.447 25.4958 118.239 25.1856 117.976 24.9244C117.713 24.6631 117.401 24.4558 117.058 24.3145C116.715 24.1731 116.347 24.1003 115.975 24.1003ZM145.931 24.1003H144.873V23.0499C144.873 22.3037 144.575 21.588 144.044 21.0604C143.513 20.5328 142.794 20.2363 142.043 20.2363C141.293 20.2363 140.573 20.5328 140.043 21.0604C139.512 21.588 139.214 22.3037 139.214 23.0499V24.1003H138.157C137.785 24.1003 137.417 24.1731 137.074 24.3145C136.731 24.4558 136.419 24.6631 136.156 24.9244C135.893 25.1856 135.685 25.4958 135.543 25.8371C135.4 26.1785 135.327 26.5444 135.327 26.9138C135.327 27.2833 135.4 27.6492 135.543 27.9905C135.685 28.3319 135.893 28.6421 136.156 28.9033C136.419 29.1646 136.731 29.3718 137.074 29.5132C137.417 29.6546 137.785 29.7274 138.157 29.7274H139.213V30.7797C139.213 31.5259 139.511 32.2415 140.042 32.7692C140.572 33.2968 141.292 33.5932 142.043 33.5932C142.793 33.5932 143.513 33.2968 144.043 32.7692C144.574 32.2415 144.872 31.5259 144.872 30.7797V29.7274H145.93C146.302 29.7274 146.67 29.6546 147.013 29.5132C147.356 29.3718 147.668 29.1646 147.931 28.9033C148.194 28.6421 148.402 28.3319 148.544 27.9905C148.687 27.6492 148.76 27.2833 148.76 26.9138C148.76 26.5444 148.687 26.1785 148.544 25.8371C148.402 25.4958 148.194 25.1856 147.931 24.9244C147.668 24.6631 147.356 24.4558 147.013 24.3145C146.67 24.1731 146.302 24.1003 145.931 24.1003Z" fill="#EC284B"/>
</svg>
