<svg width="24" height="24" viewBox="0 0 24 24" fill="none" xmlns="http://www.w3.org/2000/svg">
<g clip-path="url(#clip0_86_11292)">
<path d="M23.8631 8.76279C23.7457 8.6196 23.5705 8.53603 23.3868 8.53603H21.051C20.4745 7.01567 19.7236 5.52604 18.87 4.96374C15.9171 3.0212 8.08491 3.0212 5.13208 4.96374C4.27787 5.52665 3.52999 7.01813 2.95048 8.53603H0.614639C0.42905 8.53603 0.254522 8.6196 0.138376 8.76279C0.0216142 8.90536 -0.0250904 9.09402 0.0130107 9.27531L0.358993 10.9518C0.417988 11.2375 0.669947 11.4415 0.960622 11.4415H1.65259C0.984588 12.2122 0.660729 13.1825 0.656428 14.1535C0.652126 15.353 1.1075 16.4371 1.94019 17.204C1.94941 17.212 1.95862 17.2175 1.96723 17.2255V19.5712C1.96723 20.0794 2.38019 20.493 2.88903 20.493H5.04358C5.55242 20.493 5.96538 20.0794 5.96538 19.5712V18.6285H18.0354V19.5712C18.0354 20.0794 18.4484 20.493 18.9572 20.493H21.1118C21.6194 20.493 22.0336 20.0794 22.0336 19.5712V17.2716C22.9173 16.4623 23.3395 15.3487 23.345 14.2371C23.3487 13.2329 23.0101 12.2269 22.3028 11.4403H23.0408C23.3327 11.4403 23.5847 11.2363 23.6424 10.9499L23.989 9.27408C24.0247 9.09402 23.9798 8.90659 23.8631 8.76279ZM6.14421 6.50315C8.49788 4.95391 15.5029 4.95391 17.8554 6.50315C18.3126 6.80304 18.9007 8.01552 19.4396 9.50023H4.56117C5.09889 8.01613 5.687 6.80427 6.14421 6.50315ZM3.38742 14.3845C3.38742 13.3829 4.19983 12.5717 5.2009 12.5717C6.20321 12.5717 7.01439 13.3829 7.01439 14.3845C7.01439 15.3862 6.20321 16.198 5.2009 16.198C4.19983 16.198 3.38742 15.3862 3.38742 14.3845ZM18.8239 16.198C17.8228 16.198 17.0104 15.3862 17.0104 14.3845C17.0104 13.3829 17.8228 12.5717 18.8239 12.5717C19.8262 12.5717 20.6374 13.3829 20.6374 14.3845C20.6374 15.3862 19.825 16.198 18.8239 16.198Z" fill="#FE385C"/>
</g>
<defs>
<clipPath id="clip0_86_11292">
<rect width="24.0006" height="24" fill="white"/>
</clipPath>
</defs>
</svg>
