<?xml version="1.0" standalone="no"?>
<!DOCTYPE svg PUBLIC "-//W3C//DTD SVG 20010904//EN"
 "http://www.w3.org/TR/2001/REC-SVG-20010904/DTD/svg10.dtd">
<svg version="1.0" xmlns="http://www.w3.org/2000/svg"
 width="128.000000pt" height="128.000000pt" viewBox="0 0 128.000000 128.000000"
 preserveAspectRatio="xMidYMid meet">

<g transform="translate(0.000000,128.000000) scale(0.100000,-0.100000)"
fill="#FE385C" stroke="none">
<path d="M760 1175 c-62 -78 -99 -115 -141 -140 -71 -44 -123 -101 -158 -174
-17 -36 -52 -82 -99 -127 -39 -39 -72 -79 -72 -88 0 -27 34 -17 55 17 11 17
56 59 99 92 l79 60 75 -3 c79 -2 102 -12 102 -43 0 -23 -36 -39 -89 -39 -21 0
-43 -6 -48 -12 -6 -7 -18 -45 -27 -84 -20 -84 -18 -159 4 -159 11 0 16 17 21
70 3 39 11 87 18 107 12 35 15 37 67 44 41 5 59 12 74 32 27 34 25 68 -5 98
-25 25 -30 26 -124 22 l-99 -3 14 26 c24 48 62 86 130 130 49 31 89 71 150
147 46 57 84 110 84 118 0 34 -33 7 -110 -91z"/>
<path d="M1195 1155 c-54 -70 -65 -95 -41 -95 18 0 128 138 120 151 -12 19
-31 6 -79 -56z"/>
<path d="M1047 969 c-39 -52 -47 -69 -47 -105 0 -38 -3 -44 -20 -44 -12 0 -32
-12 -46 -26 -21 -20 -25 -32 -22 -62 3 -23 -1 -46 -10 -60 -9 -14 -12 -34 -8
-53 4 -20 0 -39 -11 -56 -13 -20 -14 -31 -6 -54 9 -22 8 -31 -3 -40 -10 -8
-14 -34 -14 -81 0 -76 -16 -121 -56 -159 -18 -17 -27 -20 -35 -12 -9 9 -6 21
10 47 15 23 25 65 33 126 11 94 9 106 -15 97 -10 -4 -17 -31 -22 -88 -7 -73
-12 -91 -47 -146 -27 -44 -46 -63 -60 -63 -23 0 -22 24 5 96 9 22 19 79 23
127 6 75 5 87 -9 87 -17 0 -23 -21 -33 -125 -6 -60 -13 -78 -47 -127 -23 -32
-47 -58 -54 -58 -25 0 -26 31 -4 78 27 56 27 157 1 157 -11 0 -15 -12 -15 -45
0 -57 -43 -169 -70 -182 -26 -13 -145 -163 -145 -183 0 -32 27 -12 84 60 78
99 78 99 120 84 30 -11 38 -10 61 5 24 16 28 16 44 2 24 -22 60 -20 86 4 18
17 27 19 47 11 18 -7 33 -6 53 5 20 10 32 11 47 3 11 -6 30 -8 43 -5 33 8 76
71 83 119 3 23 16 55 28 70 25 30 30 53 14 77 -6 10 -4 20 6 31 14 16 19 44
28 155 2 22 8 50 15 62 19 36 13 79 -14 100 -20 16 -25 29 -25 62 0 35 7 51
40 90 40 48 51 80 27 80 -7 0 -34 -28 -60 -61z m-9 -198 c8 -4 12 -19 10 -32
-3 -21 -8 -24 -48 -24 -46 0 -60 15 -46 51 6 15 62 19 84 5z m-7 -117 c27 -33
-21 -64 -77 -50 -17 5 -24 13 -24 30 0 12 3 26 7 29 13 14 81 7 94 -9z m-20
-110 c29 -35 -34 -69 -81 -44 -19 10 -27 40 -13 53 13 14 81 7 94 -9z m-36
-94 c20 -7 26 -16 23 -33 -2 -18 -10 -23 -41 -25 -36 -3 -67 10 -67 29 0 13
30 39 45 39 8 0 26 -5 40 -10z m-25 -135 c0 -45 -51 -107 -72 -87 -10 10 -10
17 0 32 6 11 12 28 12 39 0 35 12 51 36 51 21 0 24 -5 24 -35z"/>
<path d="M254 523 c-14 -47 -39 -86 -136 -206 -109 -136 -127 -168 -95 -167 7
1 65 68 131 151 81 103 122 164 132 196 18 59 18 83 -1 83 -9 0 -21 -21 -31
-57z"/>
</g>
</svg>
