<svg width="15" height="7" viewBox="0 0 15 7" fill="none" xmlns="http://www.w3.org/2000/svg">
<path d="M5.98878 5.93847C4.20654 5.79181 2.61836 5.391 1.52014 4.81069C0.421916 4.23038 -0.111445 3.51017 0.0194238 2.78423C0.150293 2.05829 0.936467 1.37614 2.23147 0.864861C3.52648 0.353586 5.24199 0.0480592 7.0584 0.00520481C8.8748 -0.0376496 10.6682 0.185091 12.1045 0.631927C13.5408 1.07876 14.522 1.71922 14.8653 2.43397C15.2086 3.14872 14.8906 3.88902 13.9705 4.51695C13.0505 5.14487 11.5911 5.61759 9.86433 5.84703L9.45895 5.35889C10.8897 5.16879 12.0988 4.77712 12.8611 4.25686C13.6234 3.7366 13.8869 3.12322 13.6025 2.53102C13.318 1.93882 12.5051 1.40817 11.315 1.03795C10.125 0.667722 8.63909 0.483172 7.13411 0.518679C5.62914 0.554185 4.20776 0.807328 3.13479 1.23094C2.06182 1.65456 1.41044 2.21975 1.30201 2.82122C1.19358 3.4227 1.63549 4.01943 2.54542 4.50024C3.45534 4.98105 4.77122 5.31314 6.24788 5.43465L5.98878 5.93847Z" fill="white"/>
<path d="M5 4.5L6.5 5.5L5 6.5" stroke="white" stroke-width="0.7" stroke-linecap="round" stroke-linejoin="round"/>
</svg>
