<svg width="34" height="34" viewBox="0 0 34 34" fill="none" xmlns="http://www.w3.org/2000/svg">
<path d="M4.25 4.25C4.25 3.68641 4.47388 3.14591 4.8724 2.7474C5.27091 2.34888 5.81141 2.125 6.375 2.125H16.1202C16.6838 2.12512 17.2242 2.34908 17.6226 2.74762L32.4976 17.6226C32.896 18.0211 33.1198 18.5615 33.1198 19.125C33.1198 19.6885 32.896 20.2289 32.4976 20.6274L22.7524 30.3726C22.3539 30.771 21.8135 30.9948 21.25 30.9948C20.6865 30.9948 20.1461 30.771 19.7476 30.3726L4.87262 15.4976C4.47408 15.0992 4.25012 14.5588 4.25 13.9952V4.25ZM11.6875 12.75C12.5329 12.75 13.3436 12.4142 13.9414 11.8164C14.5392 11.2186 14.875 10.4079 14.875 9.5625C14.875 8.71712 14.5392 7.90637 13.9414 7.3086C13.3436 6.71082 12.5329 6.375 11.6875 6.375C10.8421 6.375 10.0314 6.71082 9.4336 7.3086C8.83582 7.90637 8.5 8.71712 8.5 9.5625C8.5 10.4079 8.83582 11.2186 9.4336 11.8164C10.0314 12.4142 10.8421 12.75 11.6875 12.75Z" fill="#FE385C"/>
<path d="M2.74762 16.5601C2.34908 16.1617 2.12512 15.6213 2.125 15.0577V4.25C1.56141 4.25 1.02091 4.47388 0.622398 4.8724C0.223883 5.27091 0 5.81141 0 6.375L0 16.1202C0.000120354 16.6838 0.224083 17.2242 0.622625 17.6226L15.4976 32.4976C15.8961 32.896 16.4365 33.1198 17 33.1198C17.5635 33.1198 18.1039 32.896 18.5024 32.4976L18.5938 32.4062L2.74762 16.5601Z" fill="#FE385C"/>
</svg>
