<svg width="42" height="27" viewBox="0 0 42 27" fill="none" xmlns="http://www.w3.org/2000/svg">
<rect width="42" height="27" fill="#A4A4A4"/>
<g id="Transfer ticket" clip-path="url(#clip0_0_1)">
<rect width="1512" height="982" transform="translate(-90 -520)" fill="#F2F2F2"/>
<g id="Frame 2">
<rect x="-40" y="-36" width="1412" height="99" rx="20" fill="white"/>
<g id="title-row">
<g id="Frame 2_2">
<g id="Group">
<path id="Vector" d="M26.4306 11.7177L25.6339 10.0973L24.8373 11.7177C24.7496 11.8962 24.6199 12.0505 24.4596 12.1674C24.2992 12.2844 24.1129 12.3604 23.9168 12.389L22.1355 12.6489L23.4245 13.9101C23.5664 14.049 23.6725 14.2205 23.7338 14.4097C23.7951 14.5989 23.8096 14.8002 23.7761 14.9963L23.4718 16.7774L25.0651 15.9365C25.2406 15.844 25.4358 15.7956 25.634 15.7956C25.8322 15.7956 26.0275 15.844 26.2029 15.9365L27.7963 16.7774L27.492 14.9963C27.4585 14.8002 27.473 14.5989 27.5343 14.4097C27.5955 14.2205 27.7017 14.049 27.8436 13.9101L29.1326 12.6489L27.3513 12.389C27.1551 12.3605 26.9688 12.2844 26.8084 12.1675C26.648 12.0505 26.5183 11.8962 26.4306 11.7177Z" fill="#325BC5"/>
<path id="Vector_2" d="M40.5091 4.09091C38.9361 4.09091 37.6563 2.80628 37.6563 1.22727C37.6563 0.549491 37.1089 0 36.4337 0H13.0411V2.54896C13.0411 3.22675 12.4937 3.77624 11.8185 3.77624C11.1433 3.77624 10.5959 3.22675 10.5959 2.54896V0H5.29797C4.62276 0 4.07536 0.549491 4.07536 1.22727C4.07536 2.80628 2.79561 4.09091 1.22261 4.09091C0.547402 4.09091 0 4.6404 0 5.31818V21.6818C0 22.3596 0.547402 22.9091 1.22261 22.9091C2.79561 22.9091 4.07536 24.1937 4.07536 25.7727C4.07536 26.4505 4.62276 27 5.29797 27H10.5959V24.451C10.5959 23.7733 11.1433 23.2238 11.8185 23.2238C12.4937 23.2238 13.0411 23.7733 13.0411 24.451V27H36.4337C37.1089 27 37.6563 26.4505 37.6563 25.7727C37.6563 24.1937 38.9361 22.9091 40.5091 22.9091C41.1843 22.9091 41.7317 22.3596 41.7317 21.6818V5.31818C41.7317 4.6404 41.1843 4.09091 40.5091 4.09091ZM13.0411 19.0897C13.0411 19.7675 12.4937 20.317 11.8185 20.317C11.1433 20.317 10.5959 19.7675 10.5959 19.0897V16.1806C10.5959 15.5028 11.1433 14.9533 11.8185 14.9533C12.4937 14.9533 13.0411 15.5028 13.0411 16.1806V19.0897ZM13.0411 10.8194C13.0411 11.4972 12.4937 12.0467 11.8185 12.0467C11.1433 12.0467 10.5959 11.4972 10.5959 10.8194V7.91026C10.5959 7.23248 11.1433 6.68299 11.8185 6.68299C12.4937 6.68299 13.0411 7.23248 13.0411 7.91026V10.8194ZM32.6132 12.6709L30.0105 15.2176L30.6249 18.8134C30.655 18.9896 30.6464 19.1702 30.5997 19.3427C30.553 19.5151 30.4693 19.6753 30.3545 19.8119C30.2398 19.9486 30.0967 20.0584 29.9352 20.1338C29.7738 20.2091 29.5979 20.2482 29.4198 20.2482C29.2252 20.2482 29.0299 20.2016 28.851 20.1072L25.6339 18.4094L22.4168 20.1072C22.2149 20.2138 21.9873 20.2615 21.7597 20.245C21.5322 20.2285 21.3138 20.1484 21.1292 20.0138C20.9447 19.8792 20.8013 19.6954 20.7154 19.4833C20.6294 19.2711 20.6043 19.0391 20.6429 18.8134L21.2573 15.2175L18.6546 12.6709C18.4913 12.511 18.3757 12.3085 18.3211 12.0861C18.2664 11.8638 18.2748 11.6306 18.3453 11.4128C18.4158 11.195 18.5456 11.0013 18.72 10.8537C18.8944 10.7061 19.1065 10.6105 19.3323 10.5775L22.929 10.0529L24.5376 6.78125C24.6385 6.5759 24.7947 6.403 24.9885 6.28211C25.1822 6.16121 25.4058 6.09714 25.6339 6.09714C25.862 6.09714 26.0856 6.16121 26.2794 6.28211C26.4731 6.403 26.6293 6.5759 26.7303 6.78125L28.3388 10.0529L31.9356 10.5775C32.1613 10.6104 32.3734 10.7061 32.5478 10.8537C32.7222 11.0013 32.852 11.1949 32.9225 11.4127C32.9931 11.6305 33.0015 11.8638 32.9468 12.0862C32.8922 12.3085 32.7766 12.5111 32.6132 12.6709Z" fill="#325BC5"/>
</g>
</g>
</g>
</g>
</g>
<defs>
<clipPath id="clip0_0_1">
<rect width="1512" height="982" fill="white" transform="translate(-90 -520)"/>
</clipPath>
</defs>
</svg>
