<svg width="35" height="34" viewBox="0 0 35 34" fill="none" xmlns="http://www.w3.org/2000/svg">
<path d="M15.675 5.3125C15.675 5.03071 15.7869 4.76046 15.9862 4.5612C16.1854 4.36194 16.4557 4.25 16.7375 4.25H31.6125C31.8943 4.25 32.1645 4.36194 32.3638 4.5612C32.563 4.76046 32.675 5.03071 32.675 5.3125V7.4375C32.675 7.71929 32.563 7.98954 32.3638 8.1888C32.1645 8.38806 31.8943 8.5 31.6125 8.5H16.7375C16.4557 8.5 16.1854 8.38806 15.9862 8.1888C15.7869 7.98954 15.675 7.71929 15.675 7.4375V5.3125ZM0.799988 25.5C0.799988 23.8092 1.47164 22.1877 2.66718 20.9922C3.86273 19.7966 5.48423 19.125 7.17499 19.125C8.86574 19.125 10.4872 19.7966 11.6828 20.9922C12.8783 22.1877 13.55 23.8092 13.55 25.5C13.55 27.1908 12.8783 28.8123 11.6828 30.0078C10.4872 31.2034 8.86574 31.875 7.17499 31.875C5.48423 31.875 3.86273 31.2034 2.66718 30.0078C1.47164 28.8123 0.799988 27.1908 0.799988 25.5ZM15.675 22.3125C15.675 22.0307 15.7869 21.7605 15.9862 21.5612C16.1854 21.3619 16.4557 21.25 16.7375 21.25H31.6125C31.8943 21.25 32.1645 21.3619 32.3638 21.5612C32.563 21.7605 32.675 22.0307 32.675 22.3125V24.4375C32.675 24.7193 32.563 24.9895 32.3638 25.1888C32.1645 25.3881 31.8943 25.5 31.6125 25.5H16.7375C16.4557 25.5 16.1854 25.3881 15.9862 25.1888C15.7869 24.9895 15.675 24.7193 15.675 24.4375V22.3125ZM15.675 11.6875C15.675 11.4057 15.7869 11.1355 15.9862 10.9362C16.1854 10.7369 16.4557 10.625 16.7375 10.625H27.3625C27.6443 10.625 27.9145 10.7369 28.1138 10.9362C28.313 11.1355 28.425 11.4057 28.425 11.6875C28.425 11.9693 28.313 12.2395 28.1138 12.4388C27.9145 12.6381 27.6443 12.75 27.3625 12.75H16.7375C16.4557 12.75 16.1854 12.6381 15.9862 12.4388C15.7869 12.2395 15.675 11.9693 15.675 11.6875ZM15.675 28.6875C15.675 28.4057 15.7869 28.1355 15.9862 27.9362C16.1854 27.7369 16.4557 27.625 16.7375 27.625H27.3625C27.6443 27.625 27.9145 27.7369 28.1138 27.9362C28.313 28.1355 28.425 28.4057 28.425 28.6875C28.425 28.9693 28.313 29.2395 28.1138 29.4388C27.9145 29.6381 27.6443 29.75 27.3625 29.75H16.7375C16.4557 29.75 16.1854 29.6381 15.9862 29.4388C15.7869 29.2395 15.675 28.9693 15.675 28.6875ZM7.17499 2.125C6.33781 2.125 5.50883 2.28989 4.73538 2.61027C3.96193 2.93064 3.25916 3.40022 2.66718 3.99219C2.07521 4.58417 1.60563 5.28694 1.28526 6.06039C0.964882 6.83384 0.799988 7.66282 0.799988 8.5C0.799988 9.33718 0.964882 10.1662 1.28526 10.9396C1.60563 11.7131 2.07521 12.4158 2.66718 13.0078C3.25916 13.5998 3.96193 14.0694 4.73538 14.3897C5.50883 14.7101 6.33781 14.875 7.17499 14.875C8.86574 14.875 10.4872 14.2034 11.6828 13.0078C12.8783 11.8123 13.55 10.1908 13.55 8.5C13.55 6.80925 12.8783 5.18774 11.6828 3.99219C10.4872 2.79665 8.86574 2.125 7.17499 2.125ZM7.17499 11.6875C6.32961 11.6875 5.51886 11.3517 4.92108 10.7539C4.32331 10.1561 3.98749 9.34538 3.98749 8.5C3.98749 7.65462 4.32331 6.84387 4.92108 6.2461C5.51886 5.64832 6.32961 5.3125 7.17499 5.3125C8.02037 5.3125 8.83112 5.64832 9.42889 6.2461C10.0267 6.84387 10.3625 7.65462 10.3625 8.5C10.3625 9.34538 10.0267 10.1561 9.42889 10.7539C8.83112 11.3517 8.02037 11.6875 7.17499 11.6875Z" fill="#FE385C"/>
</svg>
