<svg width="35" height="34" viewBox="0 0 35 34" fill="none" xmlns="http://www.w3.org/2000/svg">
<path d="M3.58752 2.125C3.30573 2.125 3.03548 2.23694 2.83622 2.4362C2.63697 2.63546 2.52502 2.90571 2.52502 3.1875V9.5625C2.52502 9.84429 2.41308 10.1145 2.21383 10.3138C2.01457 10.5131 1.74432 10.625 1.46252 10.625C1.18073 10.625 0.910481 10.5131 0.711223 10.3138C0.511966 10.1145 0.400024 9.84429 0.400024 9.5625V3.1875C0.400024 2.34212 0.735849 1.53137 1.33362 0.933597C1.93139 0.335825 2.74215 0 3.58752 0L9.96252 0C10.2443 0 10.5146 0.111942 10.7138 0.311199C10.9131 0.510456 11.025 0.780707 11.025 1.0625C11.025 1.34429 10.9131 1.61454 10.7138 1.8138C10.5146 2.01306 10.2443 2.125 9.96252 2.125H3.58752ZM23.775 1.0625C23.775 0.780707 23.887 0.510456 24.0862 0.311199C24.2855 0.111942 24.5557 0 24.8375 0L31.2125 0C32.0579 0 32.8687 0.335825 33.4664 0.933597C34.0642 1.53137 34.4 2.34212 34.4 3.1875V9.5625C34.4 9.84429 34.2881 10.1145 34.0888 10.3138C33.8896 10.5131 33.6193 10.625 33.3375 10.625C33.0557 10.625 32.7855 10.5131 32.5862 10.3138C32.387 10.1145 32.275 9.84429 32.275 9.5625V3.1875C32.275 2.90571 32.1631 2.63546 31.9638 2.4362C31.7646 2.23694 31.4943 2.125 31.2125 2.125H24.8375C24.5557 2.125 24.2855 2.01306 24.0862 1.8138C23.887 1.61454 23.775 1.34429 23.775 1.0625ZM1.46252 23.375C1.74432 23.375 2.01457 23.4869 2.21383 23.6862C2.41308 23.8855 2.52502 24.1557 2.52502 24.4375V30.8125C2.52502 31.0943 2.63697 31.3645 2.83622 31.5638C3.03548 31.7631 3.30573 31.875 3.58752 31.875H9.96252C10.2443 31.875 10.5146 31.9869 10.7138 32.1862C10.9131 32.3855 11.025 32.6557 11.025 32.9375C11.025 33.2193 10.9131 33.4895 10.7138 33.6888C10.5146 33.8881 10.2443 34 9.96252 34H3.58752C2.74215 34 1.93139 33.6642 1.33362 33.0664C0.735849 32.4686 0.400024 31.6579 0.400024 30.8125L0.400024 24.4375C0.400024 24.1557 0.511966 23.8855 0.711223 23.6862C0.910481 23.4869 1.18073 23.375 1.46252 23.375ZM33.3375 23.375C33.6193 23.375 33.8896 23.4869 34.0888 23.6862C34.2881 23.8855 34.4 24.1557 34.4 24.4375V30.8125C34.4 31.6579 34.0642 32.4686 33.4664 33.0664C32.8687 33.6642 32.0579 34 31.2125 34H24.8375C24.5557 34 24.2855 33.8881 24.0862 33.6888C23.887 33.4895 23.775 33.2193 23.775 32.9375C23.775 32.6557 23.887 32.3855 24.0862 32.1862C24.2855 31.9869 24.5557 31.875 24.8375 31.875H31.2125C31.4943 31.875 31.7646 31.7631 31.9638 31.5638C32.1631 31.3645 32.275 31.0943 32.275 30.8125V24.4375C32.275 24.1557 32.387 23.8855 32.5862 23.6862C32.7855 23.4869 33.0557 23.375 33.3375 23.375ZM6.77502 9.5625C6.77502 9.28071 6.88697 9.01046 7.08622 8.8112C7.28548 8.61194 7.55573 8.5 7.83752 8.5C8.11932 8.5 8.38957 8.61194 8.58883 8.8112C8.78808 9.01046 8.90002 9.28071 8.90002 9.5625V24.4375C8.90002 24.7193 8.78808 24.9895 8.58883 25.1888C8.38957 25.3881 8.11932 25.5 7.83752 25.5C7.55573 25.5 7.28548 25.3881 7.08622 25.1888C6.88697 24.9895 6.77502 24.7193 6.77502 24.4375V9.5625ZM11.025 9.5625C11.025 9.28071 11.137 9.01046 11.3362 8.8112C11.5355 8.61194 11.8057 8.5 12.0875 8.5C12.3693 8.5 12.6396 8.61194 12.8388 8.8112C13.0381 9.01046 13.15 9.28071 13.15 9.5625V24.4375C13.15 24.7193 13.0381 24.9895 12.8388 25.1888C12.6396 25.3881 12.3693 25.5 12.0875 25.5C11.8057 25.5 11.5355 25.3881 11.3362 25.1888C11.137 24.9895 11.025 24.7193 11.025 24.4375V9.5625ZM15.275 9.5625C15.275 9.28071 15.387 9.01046 15.5862 8.8112C15.7855 8.61194 16.0557 8.5 16.3375 8.5C16.6193 8.5 16.8896 8.61194 17.0888 8.8112C17.2881 9.01046 17.4 9.28071 17.4 9.5625V24.4375C17.4 24.7193 17.2881 24.9895 17.0888 25.1888C16.8896 25.3881 16.6193 25.5 16.3375 25.5C16.0557 25.5 15.7855 25.3881 15.5862 25.1888C15.387 24.9895 15.275 24.7193 15.275 24.4375V9.5625ZM19.525 9.5625C19.525 9.28071 19.637 9.01046 19.8362 8.8112C20.0355 8.61194 20.3057 8.5 20.5875 8.5H22.7125C22.9943 8.5 23.2646 8.61194 23.4638 8.8112C23.6631 9.01046 23.775 9.28071 23.775 9.5625V24.4375C23.775 24.7193 23.6631 24.9895 23.4638 25.1888C23.2646 25.3881 22.9943 25.5 22.7125 25.5H20.5875C20.3057 25.5 20.0355 25.3881 19.8362 25.1888C19.637 24.9895 19.525 24.7193 19.525 24.4375V9.5625ZM25.9 9.5625C25.9 9.28071 26.012 9.01046 26.2112 8.8112C26.4105 8.61194 26.6807 8.5 26.9625 8.5C27.2443 8.5 27.5146 8.61194 27.7138 8.8112C27.9131 9.01046 28.025 9.28071 28.025 9.5625V24.4375C28.025 24.7193 27.9131 24.9895 27.7138 25.1888C27.5146 25.3881 27.2443 25.5 26.9625 25.5C26.6807 25.5 26.4105 25.3881 26.2112 25.1888C26.012 24.9895 25.9 24.7193 25.9 24.4375V9.5625Z" fill="#FE385C"/>
</svg>
