<svg width="24" height="24" viewBox="0 0 24 24" fill="none" xmlns="http://www.w3.org/2000/svg">
<g clip-path="url(#clip0_86_11650)">
<path d="M9.43605 2.33174L0.436048 3.50076C0.185126 3.53315 -0.00204562 3.74779 1.688e-05 4.00077V11.0008C1.688e-05 11.2769 0.223892 11.5008 0.500033 11.5008H9.50003C9.77617 11.5008 10 11.2769 10 11.0008V2.82674C9.99986 2.68312 9.93794 2.54652 9.83003 2.45174C9.72133 2.35827 9.57841 2.31472 9.43605 2.33174Z" fill="#F44336"/>
<path d="M23.83 0.626596C23.7228 0.530033 23.5792 0.484471 23.436 0.50158L11.436 2.0666C11.1851 2.09899 10.9979 2.31363 11 2.56661V11.0016C11 11.2778 11.2239 11.5016 11.5 11.5016H23.5C23.7762 11.5016 24 11.2778 24 11.0016V1.0016C23.9998 0.857971 23.9378 0.721377 23.83 0.626596Z" fill="#4CAF50"/>
<path d="M9.50003 12.501H0.500033C0.223892 12.501 1.688e-05 12.7249 1.688e-05 13.001V20.001C-0.00204562 20.254 0.185126 20.4686 0.436001 20.501L9.436 21.675C9.45733 21.6764 9.4787 21.6764 9.49999 21.675C9.77613 21.675 10 21.4511 10 21.175V13.001C10 12.7249 9.77617 12.501 9.50003 12.501Z" fill="#2196F3"/>
<path d="M23.5 12.501H11.5C11.2239 12.501 11 12.7249 11 13.001V21.436C10.998 21.689 11.1851 21.9036 11.436 21.936L23.436 23.501C23.4573 23.5025 23.4787 23.5025 23.5 23.501C23.7761 23.501 24 23.2772 24 23.001V13.001C24 12.7249 23.7762 12.501 23.5 12.501Z" fill="#FFC107"/>
</g>
<defs>
<clipPath id="clip0_86_11650">
<rect width="24" height="24" fill="white"/>
</clipPath>
</defs>
</svg>
